<?xml version="1.0" encoding="utf-8"?>
<!-- Generator: Adobe Illustrator 27.0.0, SVG Export Plug-In . SVG Version: 6.00 Build 0)  -->
<svg version="1.1" id="Calque_1" xmlns="http://www.w3.org/2000/svg" xmlns:xlink="http://www.w3.org/1999/xlink" x="0px" y="0px"
	 viewBox="0 0 137.97 104.76" style="enable-background:new 0 0 137.97 104.76;" xml:space="preserve">
<style type="text/css">
	.st0{fill:#F6F6F6;}
	.st1{fill:#FFFFFF;}
	.st2{fill:#BE1622;}
	.st3{fill:#FFE33C;}
	.st4{fill:#2D2E83;}
	.st5{fill:#432918;}
	.st6{fill:#FEE3BC;}
	.st7{fill:#C9C777;}
	.st8{fill:#FDE5D5;}
	.st9{fill:#FCEA10;}
	.st10{fill:#FDE5D6;}
	.st11{fill:#C9C777;stroke:#C9C777;stroke-width:0.5;stroke-miterlimit:10;}
	.st12{fill:#683C11;}
	.st13{fill:#D3B19B;}
	.st14{fill:#E94E1B;}
	.st15{fill:#EED2B3;}
	.st16{fill:#CBBBA0;}
	.st17{fill:#F8ECD0;}
	.st18{fill:#7D4E24;}
	.st19{fill:#7D4E25;}
	.st20{fill:#221D39;}
	.st21{fill:#221C38;}
	.st22{fill:#B17F4A;}
	.st23{fill:#B17F49;}
	.st24{fill:#878787;}
	.st25{fill:#EDEDED;}
	.st26{fill:#00A19A;}
	.st27{fill:#BE1622;stroke:#BE1622;stroke-width:2;stroke-miterlimit:10;}
	.st28{fill:none;}
	.st29{fill:#312783;}
	.st30{fill:#9D9D9C;}
	.st31{fill:#D4D3EB;}
	.st32{fill:#7A76B6;}
	.st33{fill:#E6342A;}
</style>
<g>
	<g>
		<g>
			<g>
				<path class="st1" d="M79.39,49.05C79.39,49.05,79.39,49.05,79.39,49.05L79.39,49.05c-0.39-0.35-0.9-0.77-1.55-1.18
					c-2.39-1.5-4.74-1.66-5.87-1.72c-1.2-0.07-3.71-0.17-6.41,1.2c-1.14,0.58-1.99,1.27-2.54,1.78c0.5,0.71,1.36,1.75,2.7,2.61
					c3.06,1.97,6.27,1.52,7.2,1.38c1-0.16,3.05-0.5,4.87-2.13C78.57,50.29,79.08,49.56,79.39,49.05z"/>
			</g>
		</g>
	</g>
	<g>
		<g>
			<g>
				<path class="st2" d="M70.43,53.69c-2.19-0.13-3.84-0.87-4.94-1.57c-1.1-0.71-2.05-1.63-2.83-2.73l-0.22-0.31l0.28-0.26
					c0.8-0.74,1.69-1.36,2.64-1.85c2.85-1.46,5.5-1.31,6.63-1.25c1.06,0.06,3.54,0.2,6.08,1.79c0.57,0.36,1.11,0.77,1.61,1.22
					l0.26,0.24l-0.18,0.3c-0.46,0.77-1.03,1.46-1.69,2.05c-1.96,1.75-4.15,2.09-5.09,2.24C72.06,53.7,71.21,53.73,70.43,53.69z
					 M63.6,49.2c0.66,0.87,1.45,1.61,2.36,2.19c1.36,0.88,3.67,1.81,6.9,1.31c0.86-0.13,2.88-0.45,4.65-2.02
					c0.51-0.45,0.95-0.97,1.33-1.54c-0.39-0.33-0.79-0.63-1.22-0.89c-2.35-1.47-4.68-1.6-5.66-1.66c-1.06-0.06-3.54-0.2-6.19,1.16
					C64.99,48.13,64.26,48.62,63.6,49.2z"/>
			</g>
		</g>
	</g>
</g>
<g>
	<g>
		<g>
			<g>
				<path class="st2" d="M70.86,46.98c-0.9,0.11-1.43,0.78-1.56,0.94c-0.13,0.16-0.57,0.73-0.56,1.58c0,0.87,0.46,1.44,0.6,1.6
					c0.12,0.15,0.88,1.03,2.03,0.95c0.76-0.05,1.26-0.49,1.41-0.63c0.14-0.13,0.49-0.47,0.68-1.03c0.37-1.09-0.17-2.05-0.22-2.14
					C72.79,47.5,71.87,46.85,70.86,46.98z"/>
			</g>
		</g>
	</g>
	<g>
		<g>
			<g>
				<path d="M71.08,52.34c-1.06-0.06-1.77-0.81-1.97-1.06c-0.43-0.52-0.66-1.14-0.66-1.78c0-0.63,0.21-1.24,0.63-1.76
					c0.6-0.76,1.28-0.99,1.75-1.05l0,0c1.17-0.15,2.18,0.6,2.66,1.41c0.07,0.12,0.66,1.17,0.25,2.38c-0.19,0.56-0.52,0.94-0.76,1.16
					c-0.59,0.53-1.19,0.67-1.58,0.7C71.28,52.35,71.18,52.35,71.08,52.34z M71.21,47.25c-0.1-0.01-0.21,0-0.32,0.01l0,0
					c-0.36,0.04-0.88,0.23-1.37,0.83c-0.33,0.41-0.5,0.9-0.5,1.4c0,0.51,0.18,1,0.53,1.42c0.18,0.22,0.83,0.91,1.78,0.85
					c0.31-0.02,0.77-0.13,1.24-0.55c0.16-0.14,0.44-0.45,0.6-0.91c0.33-0.96-0.14-1.8-0.2-1.9C72.66,47.85,71.99,47.3,71.21,47.25z
					 M70.86,46.98L70.86,46.98L70.86,46.98z"/>
			</g>
		</g>
	</g>
</g>
<g>
	<g>
		<g>
			<g>
				<path d="M71.01,49.27c0.06-0.03,0.09-0.05,0.13-0.05c0.12,0,0.2,0.14,0.21,0.15c0.02,0.03,0.07,0.14,0.02,0.26
					c-0.05,0.12-0.17,0.16-0.19,0.16c-0.12,0.03-0.26-0.02-0.33-0.13c-0.04-0.07-0.07-0.17-0.02-0.26
					C70.87,49.35,70.92,49.32,71.01,49.27z"/>
			</g>
		</g>
	</g>
	<g>
		<g>
			<g>
				<path d="M71.09,49.85c-0.11-0.01-0.21-0.06-0.27-0.15c-0.04-0.07-0.08-0.19-0.03-0.29c0.04-0.07,0.1-0.11,0.19-0.16l0,0
					l0.02,0.03L71,49.24c0.06-0.03,0.1-0.05,0.14-0.05c0.14,0,0.23,0.14,0.24,0.17c0.03,0.05,0.08,0.16,0.02,0.29
					c-0.06,0.14-0.19,0.18-0.21,0.18C71.16,49.84,71.13,49.85,71.09,49.85z M71.01,49.27l0.02,0.03l0,0
					c-0.08,0.04-0.14,0.07-0.16,0.13c-0.04,0.07-0.01,0.16,0.02,0.22c0.06,0.09,0.18,0.14,0.29,0.11c0.01,0,0.12-0.03,0.16-0.14
					c0.04-0.1,0-0.19-0.02-0.23c-0.01-0.01-0.07-0.13-0.18-0.13c-0.03,0-0.06,0.01-0.11,0.04L71.01,49.27z"/>
			</g>
		</g>
	</g>
</g>
<g>
	<g>
		<g>
			<g>
				<path class="st2" d="M73.8,44.58c-0.01,0-0.02,0-0.03,0c-0.16-0.02-0.27-0.17-0.24-0.33c0.02-0.15,0.06-0.31,0.09-0.46
					c0.03-0.14,0.06-0.28,0.08-0.43c0.02-0.14,0.03-0.29,0.05-0.43c0.01-0.16,0.03-0.31,0.05-0.47c0.02-0.16,0.17-0.27,0.33-0.24
					c0.16,0.02,0.27,0.17,0.24,0.33c-0.02,0.14-0.04,0.29-0.05,0.43c-0.01,0.15-0.03,0.31-0.05,0.46c-0.02,0.15-0.06,0.31-0.09,0.46
					c-0.03,0.14-0.06,0.28-0.08,0.43C74.08,44.48,73.94,44.58,73.8,44.58z"/>
			</g>
		</g>
	</g>
</g>
<g>
	<g>
		<g>
			<g>
				<path class="st2" d="M77.42,45.5c-0.04,0-0.07-0.01-0.11-0.03c-0.14-0.07-0.21-0.24-0.14-0.39c0.08-0.16,0.16-0.31,0.24-0.47
					c0.08-0.15,0.16-0.29,0.23-0.44c0.07-0.15,0.13-0.3,0.2-0.46c0.07-0.16,0.13-0.33,0.21-0.49c0.07-0.14,0.24-0.21,0.39-0.14
					c0.14,0.07,0.21,0.24,0.14,0.39c-0.07,0.15-0.13,0.3-0.2,0.46c-0.07,0.16-0.13,0.33-0.21,0.49c-0.08,0.16-0.16,0.31-0.24,0.47
					c-0.08,0.15-0.16,0.29-0.23,0.44C77.64,45.44,77.53,45.51,77.42,45.5z"/>
			</g>
		</g>
	</g>
</g>
<g>
	<g>
		<g>
			<g>
				<path class="st2" d="M79.73,47.27c-0.05,0-0.11-0.02-0.15-0.06c-0.13-0.09-0.16-0.28-0.06-0.4c0.12-0.16,0.25-0.32,0.37-0.47
					c0.12-0.15,0.24-0.3,0.36-0.45c0.11-0.15,0.22-0.31,0.32-0.47c0.11-0.17,0.22-0.34,0.34-0.5c0.09-0.13,0.28-0.16,0.4-0.06
					c0.13,0.09,0.16,0.28,0.06,0.4c-0.11,0.15-0.22,0.31-0.32,0.48c-0.11,0.17-0.22,0.34-0.34,0.5c-0.12,0.16-0.25,0.32-0.37,0.47
					c-0.12,0.15-0.24,0.3-0.36,0.45C79.92,47.24,79.83,47.28,79.73,47.27z"/>
			</g>
		</g>
	</g>
</g>
<g>
	<g>
		<g>
			<g>
				<path class="st2" d="M70.07,44.63c-0.14-0.01-0.26-0.12-0.27-0.27c-0.01-0.18-0.01-0.36-0.01-0.53c0-0.17,0-0.33-0.01-0.5
					c-0.01-0.17-0.03-0.33-0.05-0.5c-0.02-0.18-0.04-0.35-0.06-0.53c-0.01-0.16,0.11-0.3,0.27-0.31c0.16-0.01,0.3,0.11,0.31,0.27
					c0.01,0.17,0.03,0.33,0.05,0.5c0.02,0.18,0.04,0.35,0.06,0.53s0.01,0.36,0.01,0.53c0,0.17,0,0.33,0.01,0.5
					c0.01,0.16-0.11,0.3-0.27,0.31C70.09,44.63,70.08,44.63,70.07,44.63z"/>
			</g>
		</g>
	</g>
</g>
<g>
	<g>
		<g>
			<g>
				<path class="st2" d="M66.32,44.78c-0.11-0.01-0.22-0.08-0.26-0.19c-0.05-0.15-0.1-0.3-0.14-0.44c-0.04-0.14-0.08-0.28-0.13-0.41
					c-0.05-0.14-0.11-0.27-0.16-0.4c-0.06-0.14-0.12-0.29-0.17-0.43c-0.05-0.15,0.02-0.32,0.17-0.37c0.15-0.05,0.32,0.02,0.37,0.17
					c0.05,0.14,0.11,0.27,0.16,0.4c0.06,0.14,0.12,0.29,0.17,0.43c0.05,0.15,0.1,0.3,0.14,0.44c0.04,0.14,0.08,0.28,0.13,0.41
					c0.05,0.15-0.02,0.32-0.17,0.37C66.4,44.77,66.36,44.78,66.32,44.78z"/>
			</g>
		</g>
	</g>
</g>
<g>
	<g>
		<g>
			<g>
				<path class="st2" d="M63.54,46.39c-0.1,0.05-0.22,0.04-0.31-0.03c-0.11-0.09-0.21-0.18-0.31-0.27
					c-0.09-0.09-0.19-0.17-0.29-0.25c-0.1-0.08-0.2-0.15-0.31-0.23c-0.11-0.08-0.22-0.16-0.33-0.25c-0.11-0.09-0.11-0.25,0.01-0.36
					c0.11-0.11,0.29-0.13,0.4-0.04c0.1,0.08,0.2,0.15,0.31,0.23c0.11,0.08,0.22,0.16,0.33,0.25c0.11,0.09,0.21,0.18,0.31,0.27
					c0.09,0.09,0.19,0.17,0.28,0.25c0.11,0.09,0.11,0.25,0,0.36C63.61,46.35,63.57,46.38,63.54,46.39z"/>
			</g>
		</g>
	</g>
</g>
</svg>
