<?xml version="1.0" encoding="utf-8"?>
<!-- Generator: Adobe Illustrator 27.0.0, SVG Export Plug-In . SVG Version: 6.00 Build 0)  -->
<svg version="1.1" id="Calque_1" xmlns="http://www.w3.org/2000/svg" xmlns:xlink="http://www.w3.org/1999/xlink" x="0px" y="0px"
	 viewBox="0 0 137.97 104.76" style="enable-background:new 0 0 137.97 104.76;" xml:space="preserve">
<style type="text/css">
	.st0{fill:#F6F6F6;}
	.st1{fill:#FFFFFF;}
	.st2{fill:#BE1622;}
	.st3{fill:#FFE33C;}
	.st4{fill:#2D2E83;}
	.st5{fill:#432918;}
	.st6{fill:#FEE3BC;}
	.st7{fill:#C9C777;}
	.st8{fill:#FDE5D5;}
	.st9{fill:#FCEA10;}
	.st10{fill:#FDE5D6;}
	.st11{fill:#C9C777;stroke:#C9C777;stroke-width:0.5;stroke-miterlimit:10;}
	.st12{fill:#683C11;}
	.st13{fill:#D3B19B;}
	.st14{fill:#E94E1B;}
	.st15{fill:#EED2B3;}
	.st16{fill:#CBBBA0;}
	.st17{fill:#F8ECD0;}
	.st18{fill:#7D4E24;}
	.st19{fill:#7D4E25;}
	.st20{fill:#221D39;}
	.st21{fill:#221C38;}
	.st22{fill:#B17F4A;}
	.st23{fill:#B17F49;}
	.st24{fill:#878787;}
	.st25{fill:#EDEDED;}
	.st26{fill:#00A19A;}
	.st27{fill:#BE1622;stroke:#BE1622;stroke-width:2;stroke-miterlimit:10;}
	.st28{fill:none;}
	.st29{fill:#312783;}
	.st30{fill:#9D9D9C;}
	.st31{fill:#D4D3EB;}
	.st32{fill:#7A76B6;}
	.st33{fill:#E6342A;}
</style>
<g>
	<path class="st4" d="M31.86,50.73H19.1c-2.39-9.88,3.33-14.89,3.33-14.89h6.09C28.52,35.83,34.25,40.85,31.86,50.73z"/>
	<circle class="st4" cx="25.48" cy="31.36" r="6.98"/>
</g>
<g>
	<path class="st4" d="M52.57,50.73H39.81c-2.39-9.88,3.33-14.89,3.33-14.89h6.09C49.23,35.83,54.96,40.85,52.57,50.73z"/>
	<circle class="st4" cx="46.19" cy="31.36" r="6.98"/>
</g>
<g>
	<path class="st4" d="M73.28,50.73H60.52c-2.39-9.88,3.33-14.89,3.33-14.89h6.09C69.94,35.83,75.67,40.85,73.28,50.73z"/>
	<circle class="st4" cx="66.9" cy="31.36" r="6.98"/>
</g>
<g>
	<path class="st4" d="M93.99,50.73H81.23c-2.39-9.88,3.33-14.89,3.33-14.89h6.09C90.65,35.83,96.38,40.85,93.99,50.73z"/>
	<circle class="st4" cx="87.61" cy="31.36" r="6.98"/>
</g>
<g>
	<path class="st4" d="M114.7,50.73h-12.76c-2.39-9.88,3.33-14.89,3.33-14.89h6.09C111.36,35.83,117.09,40.85,114.7,50.73z"/>
	<circle class="st4" cx="108.32" cy="31.36" r="6.98"/>
</g>
<g>
	<path class="st4" d="M31.86,80.39H19.1c-2.39-9.88,3.33-14.89,3.33-14.89h6.09C28.52,65.49,34.25,70.51,31.86,80.39z"/>
	<circle class="st4" cx="25.48" cy="61.02" r="6.98"/>
</g>
<g>
	<path class="st4" d="M52.57,80.39H39.81c-2.39-9.88,3.33-14.89,3.33-14.89h6.09C49.23,65.49,54.96,70.51,52.57,80.39z"/>
	<circle class="st4" cx="46.19" cy="61.02" r="6.98"/>
</g>
<g>
	<path class="st4" d="M73.28,80.39H60.52c-2.39-9.88,3.33-14.89,3.33-14.89h6.09C69.94,65.49,75.67,70.51,73.28,80.39z"/>
	<circle class="st4" cx="66.9" cy="61.02" r="6.98"/>
</g>
<g>
	<path class="st30" d="M93.99,80.39H81.23c-2.39-9.88,3.33-14.89,3.33-14.89h6.09C90.65,65.49,96.38,70.51,93.99,80.39z"/>
	<circle class="st30" cx="87.61" cy="61.02" r="6.98"/>
</g>
<g>
	<path class="st30" d="M114.7,80.39h-12.76c-2.39-9.88,3.33-14.89,3.33-14.89h6.09C111.36,65.49,117.09,70.51,114.7,80.39z"/>
	<circle class="st30" cx="108.32" cy="61.02" r="6.98"/>
</g>
</svg>
