<?xml version="1.0" encoding="utf-8"?>
<!-- Generator: Adobe Illustrator 27.0.0, SVG Export Plug-In . SVG Version: 6.00 Build 0)  -->
<svg version="1.1" id="Calque_1" xmlns="http://www.w3.org/2000/svg" xmlns:xlink="http://www.w3.org/1999/xlink" x="0px" y="0px"
	 viewBox="0 0 137.97 104.76" style="enable-background:new 0 0 137.97 104.76;" xml:space="preserve">
<style type="text/css">
	.st0{fill:#F6F6F6;}
	.st1{fill:#FFFFFF;}
	.st2{fill:#BE1622;}
	.st3{fill:#FFE33C;}
	.st4{fill:#2D2E83;}
	.st5{fill:#432918;}
	.st6{fill:#FEE3BC;}
	.st7{fill:#C9C777;}
	.st8{fill:#FDE5D5;}
	.st9{fill:#FCEA10;}
	.st10{fill:#FDE5D6;}
	.st11{fill:#C9C777;stroke:#C9C777;stroke-width:0.5;stroke-miterlimit:10;}
	.st12{fill:#683C11;}
	.st13{fill:#D3B19B;}
	.st14{fill:#E94E1B;}
	.st15{fill:#EED2B3;}
	.st16{fill:#CBBBA0;}
	.st17{fill:#F8ECD0;}
	.st18{fill:#7D4E24;}
	.st19{fill:#7D4E25;}
	.st20{fill:#221D39;}
	.st21{fill:#221C38;}
	.st22{fill:#B17F4A;}
	.st23{fill:#B17F49;}
	.st24{fill:#878787;}
	.st25{fill:#EDEDED;}
	.st26{fill:#00A19A;}
	.st27{fill:#BE1622;stroke:#BE1622;stroke-width:2;stroke-miterlimit:10;}
	.st28{fill:none;}
	.st29{fill:#312783;}
	.st30{fill:#9D9D9C;}
	.st31{fill:#D4D3EB;}
	.st32{fill:#7A76B6;}
	.st33{fill:#E6342A;}
</style>
<g>
	<path class="st2" d="M32.86,49.87H20.1c-2.39-9.88,3.33-14.89,3.33-14.89h6.09C29.52,34.98,35.25,40,32.86,49.87z"/>
	<circle class="st2" cx="26.48" cy="30.5" r="6.98"/>
</g>
<g>
	<path class="st2" d="M53.57,49.87H40.81c-2.39-9.88,3.33-14.89,3.33-14.89h6.09C50.23,34.98,55.96,40,53.57,49.87z"/>
	<circle class="st2" cx="47.19" cy="30.5" r="6.98"/>
</g>
<g>
	<path class="st2" d="M74.28,49.87H61.52c-2.39-9.88,3.33-14.89,3.33-14.89h6.09C70.94,34.98,76.67,40,74.28,49.87z"/>
	<circle class="st2" cx="67.9" cy="30.5" r="6.98"/>
</g>
<g>
	<path class="st2" d="M94.99,49.87H82.23c-2.39-9.88,3.33-14.89,3.33-14.89h6.09C91.65,34.98,97.38,40,94.99,49.87z"/>
	<circle class="st2" cx="88.61" cy="30.5" r="6.98"/>
</g>
<g>
	<path class="st2" d="M115.7,49.87h-12.76c-2.39-9.88,3.33-14.89,3.33-14.89h6.09C112.36,34.98,118.09,40,115.7,49.87z"/>
	<circle class="st2" cx="109.32" cy="30.5" r="6.98"/>
</g>
<g>
	<path class="st2" d="M32.86,79.54H20.1c-2.39-9.88,3.33-14.89,3.33-14.89h6.09C29.52,64.64,35.25,69.66,32.86,79.54z"/>
	<circle class="st2" cx="26.48" cy="60.16" r="6.98"/>
</g>
<g>
	<path class="st2" d="M53.57,79.54H40.81c-2.39-9.88,3.33-14.89,3.33-14.89h6.09C50.23,64.64,55.96,69.66,53.57,79.54z"/>
	<circle class="st2" cx="47.19" cy="60.16" r="6.98"/>
</g>
<g>
	<path class="st30" d="M74.28,79.54H61.52c-2.39-9.88,3.33-14.89,3.33-14.89h6.09C70.94,64.64,76.67,69.66,74.28,79.54z"/>
	<circle class="st30" cx="67.9" cy="60.16" r="6.98"/>
</g>
<g>
	<path class="st30" d="M94.99,79.54H82.23c-2.39-9.88,3.33-14.89,3.33-14.89h6.09C91.65,64.64,97.38,69.66,94.99,79.54z"/>
	<circle class="st30" cx="88.61" cy="60.16" r="6.98"/>
</g>
<g>
	<path class="st30" d="M115.7,79.54h-12.76c-2.39-9.88,3.33-14.89,3.33-14.89h6.09C112.36,64.64,118.09,69.66,115.7,79.54z"/>
	<circle class="st30" cx="109.32" cy="60.16" r="6.98"/>
</g>
</svg>
