<?xml version="1.0" encoding="utf-8"?>
<!-- Generator: Adobe Illustrator 27.0.0, SVG Export Plug-In . SVG Version: 6.00 Build 0)  -->
<svg version="1.1" id="Calque_1" xmlns="http://www.w3.org/2000/svg" xmlns:xlink="http://www.w3.org/1999/xlink" x="0px" y="0px"
	 viewBox="0 0 137.97 104.76" style="enable-background:new 0 0 137.97 104.76;" xml:space="preserve">
<style type="text/css">
	.st0{fill:#F6F6F6;}
	.st1{fill:#FFFFFF;}
	.st2{fill:#BE1622;}
	.st3{fill:#FFE33C;}
	.st4{fill:#2D2E83;}
	.st5{fill:#432918;}
	.st6{fill:#FEE3BC;}
	.st7{fill:#C9C777;}
	.st8{fill:#FDE5D5;}
	.st9{fill:#FCEA10;}
	.st10{fill:#FDE5D6;}
	.st11{fill:#C9C777;stroke:#C9C777;stroke-width:0.5;stroke-miterlimit:10;}
	.st12{fill:#683C11;}
	.st13{fill:#D3B19B;}
	.st14{fill:#E94E1B;}
	.st15{fill:#EED2B3;}
	.st16{fill:#CBBBA0;}
	.st17{fill:#F8ECD0;}
	.st18{fill:#7D4E24;}
	.st19{fill:#7D4E25;}
	.st20{fill:#221D39;}
	.st21{fill:#221C38;}
	.st22{fill:#B17F4A;}
	.st23{fill:#B17F49;}
	.st24{fill:#878787;}
	.st25{fill:#EDEDED;}
	.st26{fill:#00A19A;}
	.st27{fill:#BE1622;stroke:#BE1622;stroke-width:2;stroke-miterlimit:10;}
	.st28{fill:none;}
	.st29{fill:#312783;}
	.st30{fill:#9D9D9C;}
	.st31{fill:#D4D3EB;}
	.st32{fill:#7A76B6;}
	.st33{fill:#E6342A;}
</style>
<g>
	<g>
		<path class="st31" d="M59.64,40.42c-0.32-2.92-0.64-5.85-0.95-8.77c-0.05-0.44,0.27-0.84,0.71-0.88
			c11.14-1.13,22.28-2.25,33.41-3.38c0.46-0.05,0.86,0.3,0.88,0.76c0.6,14.26,1.21,28.53,1.81,42.79c0.02,0.45-0.33,0.82-0.78,0.83
			c-11.08,0.27-22.16,0.53-33.24,0.8c-0.44,0.01-0.8-0.33-0.82-0.77c-0.34-10.44-0.68-20.88-1.02-31.31
			C59.65,40.46,59.65,40.44,59.64,40.42z"/>
		<path class="st4" d="M61.46,73.17c-0.75,0-1.38-0.6-1.41-1.36L59.04,40.5l0.61-0.08l-0.61,0.07l-0.95-8.77
			c-0.04-0.38,0.07-0.74,0.31-1.04c0.24-0.29,0.58-0.48,0.95-0.51l33.41-3.38c0.38-0.04,0.77,0.08,1.06,0.34
			c0.29,0.25,0.47,0.62,0.48,1l1.81,42.79c0.02,0.38-0.12,0.74-0.38,1.02c-0.26,0.28-0.61,0.44-0.99,0.45l-33.24,0.8
			C61.49,73.17,61.47,73.17,61.46,73.17z M92.9,27.99c-0.01,0-0.01,0-0.02,0l-33.41,3.38c-0.07,0.01-0.11,0.05-0.13,0.07
			c-0.02,0.03-0.05,0.07-0.04,0.14l0.95,8.77c0,0.04,0.01,0.07,0.01,0.11l1.02,31.31c0,0.1,0.09,0.18,0.19,0.18c0,0,0,0,0,0
			l33.24-0.8c0.07,0,0.11-0.04,0.13-0.06c0.02-0.03,0.05-0.07,0.05-0.14l-1.81-42.79c0-0.07-0.04-0.12-0.06-0.13
			C93,28.02,92.96,27.99,92.9,27.99z"/>
	</g>
	<g>
		<path class="st32" d="M33.53,51.32c3.4-0.65,6.8-1.31,10.19-1.96c0.96,5.05,1.92,10.11,2.87,15.16c-2.7,1.05-5.4,2.09-8.1,3.14"/>
		<polygon class="st4" points="38.72,68.22 38.28,67.08 45.91,64.13 43.24,50.07 33.65,51.91 33.42,50.72 44.21,48.64 47.29,64.9 		
			"/>
	</g>
	<g>
		<path class="st3" d="M51.09,62.78c1.42-0.54,3.49-1.13,6.01-1.16c1.22-0.02,2.31,0.1,3.24,0.27c-0.22-6.7-0.44-13.41-0.65-20.11
			c-2.32,2.42-4.64,4.84-6.96,7.26c-1.7,0.09-3.4,0.18-5.1,0.27C48.78,53.79,49.94,58.29,51.09,62.78z"/>
		<path class="st4" d="M50.67,63.59l-3.82-14.85l5.6-0.3l7.8-8.13l0.72,22.31l-0.74-0.13c-1.03-0.18-2.08-0.27-3.12-0.26
			c-1.97,0.02-3.93,0.4-5.81,1.12L50.67,63.59z M48.4,49.87l3.11,12.1c1.81-0.62,3.69-0.94,5.58-0.97c0.87-0.01,1.75,0.04,2.61,0.16
			l-0.58-17.93L53,49.63L48.4,49.87z"/>
	</g>
	<g>
		<path class="st3" d="M49.56,48.35c0.64,0.02,1.58-0.05,2.44-0.59c1.39-0.87,1.79-2.46,1.98-2.97c0.62-1.65,3.44-3.43,13.39-3.76
			c0.25,1.19-0.03,1.96-0.2,2.31c-0.64,1.35-2.32,2.27-3.76,2.44c-0.46,0.06-0.77,0.02-1.12,0.26c-0.77,0.53-0.72,1.69-0.79,2.31
			c-0.33,3-4.07,5.12-6,5.87c-0.64,0.25-1.65,0.56-2.97,0.66"/>
		<path class="st4" d="M52.57,55.49l-0.09-1.22c0.98-0.07,1.92-0.28,2.79-0.62c1.95-0.76,5.33-2.74,5.62-5.37
			c0.01-0.09,0.02-0.18,0.02-0.29c0.05-0.69,0.13-1.84,1.03-2.46c0.41-0.28,0.79-0.32,1.13-0.34c0.08-0.01,0.17-0.01,0.26-0.03
			c1.21-0.15,2.72-0.91,3.28-2.1c0.19-0.41,0.27-0.89,0.23-1.42c-9.24,0.37-11.8,2.02-12.3,3.35c-0.02,0.05-0.04,0.12-0.07,0.2
			c-0.24,0.71-0.74,2.18-2.16,3.07c-0.78,0.49-1.71,0.72-2.78,0.69l0.04-1.22c0.82,0.02,1.53-0.14,2.1-0.5
			c1.05-0.66,1.44-1.81,1.65-2.43c0.03-0.09,0.06-0.18,0.08-0.24c0.35-0.92,1.41-3.74,13.95-4.15l0.51-0.02l0.11,0.5
			c0.21,0.99,0.12,1.92-0.24,2.7c-0.78,1.66-2.75,2.61-4.24,2.79c-0.11,0.01-0.21,0.02-0.31,0.03c-0.3,0.02-0.4,0.04-0.54,0.13
			c-0.41,0.29-0.47,1.01-0.51,1.55c-0.01,0.12-0.02,0.23-0.03,0.33c-0.43,3.95-5.78,6.14-6.39,6.38
			C54.73,55.18,53.67,55.41,52.57,55.49z"/>
	</g>
	<g>
		<path class="st4" d="M43.53,47.75c1.76-0.64,3.53-1.28,5.29-1.92c0.83,6.19,1.66,12.37,2.48,18.56c-1.39,0.57-2.79,1.13-4.18,1.7
			C45.93,59.97,44.73,53.86,43.53,47.75z"/>
		<path class="st4" d="M46.67,66.93l-3.84-19.57L49.33,45l2.65,19.78L46.67,66.93z M44.23,48.14l3.35,17.09L50.64,64l-2.32-17.34
			L44.23,48.14z"/>
	</g>
	<g>
		<g>
			<path class="st2" d="M68.11,38.24l-1.29,0.05l-0.08,1.05l-0.99,0.16l0.16-1.54l0.27-1.51l0.24-1.51l1.46-0.18l0.46,1.48
				l0.57,1.43l0.63,1.48l-1.07-0.01L68.11,38.24z M67.81,37.38l-0.59-1.71l-0.26,1.81L67.81,37.38z"/>
		</g>
		<g>
			<path class="st2" d="M73.7,34.17l0.12,2.22l0.31,2.19l-0.95,0.14l-0.21-1.46l-0.07-1.44l-0.8,1.58l-0.45,0.07l-1.1-1.49
				l0.16,1.51L70.95,39l-1.01,0l-0.5-2.15l-0.06-2.25l1.21-0.17l1.15,1.63l0.93-1.67L73.7,34.17z"/>
		</g>
		<g>
			<path class="st2" d="M75.46,34.55l0.06,1.2l1.58-0.22l0.13,0.86l-1.51,0.2l0.06,0.91l1.75-0.15l0.11,0.9l-1.4,0.08l-1.37,0.2
				l-0.28-1.59l0.05-1.62l-0.42-1.69l1.53-0.06l1.41-0.18l0.03,0.94L75.46,34.55z"/>
		</g>
		<g>
			<path class="st2" d="M81.02,33.4l0.11,2.05l0.29,2.01l-1.01,0.15l-1.5-2.13l0.26,2.25l-1,0.09l-0.25-2.04l-0.15-2.03l1.04-0.13
				l1.47,2.05l-0.13-2.15L81.02,33.4z"/>
		</g>
		<g>
			<path class="st2" d="M85.28,34.81l-0.03,0.76l-0.23,1.36l-1.25,0.68l-1.63,0.19l-0.2-2.27l-0.2-2.22l1.56-0.19l1.37,0.4
				L85.28,34.81z M84.34,34.91l-0.95-0.95l-0.63,0.19l0.35,2.6l0.55-0.13l0.7-0.92L84.34,34.91z"/>
		</g>
		<g>
			<path class="st2" d="M86.71,33.37l0.06,1.2l1.58-0.22l0.13,0.86l-1.51,0.2l0.06,0.91l1.75-0.15l0.11,0.9l-1.4,0.08l-1.37,0.2
				l-0.28-1.59l0.05-1.62l-0.42-1.69l1.53-0.06l1.41-0.18l0.03,0.94L86.71,33.37z"/>
		</g>
	</g>
	<g>
		<g>
			<path class="st2" d="M71.53,44.59l0.06,1.13l-0.49,1.94l-0.83,1.84l-0.58,1.89l-1.62,0.18l0.62-1.88l0.51-1.9l0.78-1.78
				l-1.34,0.04l-1.34,0.1l-0.01-1.29l2.11-0.4L71.53,44.59z"/>
		</g>
		<g>
			<path class="st2" d="M77.27,47.99l-0.47,1.72l-1.68,0.87L73.44,50l-0.88-1.4l1.51-0.2l0.98,0.76l0.69-1.04l-0.8-0.88l-0.85,0.55
				L72.6,47.9l0.02-2.04l-0.39-2.11l2.33-0.05l2.19-0.06l0.11,1.23l-1.44,0.16l-1.44,0.13l0.05,1.1l1.09-0.36l1.66,0.48L77.27,47.99
				z"/>
		</g>
		<g>
			<path class="st2" d="M78.19,47.52l-0.16-1.28l0.4-2.08l1.96-0.74l1.95,0.57l0.91,1.91l0.11,1.28l-0.46,2.17l-2.05,0.84l-2-0.71
				L78.19,47.52z M81.97,47.32l-0.16-1.32l-1.32-1.19l-1.17,1.36l0.15,1.32l1.28,1.24L81.97,47.32z"/>
		</g>
		<g>
			<path class="st2" d="M86.31,45.56l1.92-0.2l0.11,0.72l-2.14-0.04l-0.05,0.44l0.09,0.2l2.13-0.16l0.12,1l-2.04,0l2.07,0.93
				l0.35-0.05l-0.05,1.34l-0.2,0.17l-1.58-0.25l-1.3-0.81l-0.86-1.31l-0.98,0.14l-0.09-0.86l0.9-0.02l0-0.23l-0.02-0.27l-0.83,0
				l-0.08-0.75l0.92-0.17l0.72-1.24l1.01-1.18l1.55-0.21l0.69-0.05l-0.03,1.47l-0.56-0.09L86.31,45.56z"/>
		</g>
	</g>
	<g>
		<path class="st4" d="M64.79,58.21c-0.01,0-0.02,0-0.02,0l-0.13-0.01l-0.05-0.12c-0.01-0.02-0.01-0.05-0.02-0.07
			c-0.07-0.02-0.12-0.07-0.12-0.17c0-0.01,0-0.02,0-0.03c0-0.01,0-0.02,0-0.03c0-0.01,0-0.02,0-0.03c0-0.01,0-0.02,0-0.03
			c0-0.01,0-0.02,0-0.03c0-0.01,0-0.01,0-0.02c0-0.01,0-0.02,0-0.03c0-0.01,0-0.02,0-0.03c0-0.01,0-0.02,0-0.03
			c0-0.01,0-0.02,0-0.02c0-0.01,0-0.02,0-0.03c0-0.01,0-0.02,0-0.03c0-0.01,0-0.02,0-0.03c0-0.01,0-0.02,0-0.03
			c0-0.01,0-0.02,0-0.03c0-0.01,0-0.01,0-0.02c0-0.01,0-0.02,0-0.03c0-0.01,0-0.02,0-0.03c0-0.01,0-0.02,0-0.03
			c0-0.01,0-0.02,0-0.02c0-0.01,0-0.02,0-0.03c0-0.01,0-0.02,0-0.03c0-0.01,0-0.02,0-0.03c0-0.01,0-0.01,0-0.02
			c0-0.01,0-0.02,0-0.03c0-0.01,0-0.02,0-0.03c0-0.01,0-0.02,0-0.03c0-0.01,0-0.02,0-0.03c0-0.01,0-0.02,0-0.02
			c0-0.01,0-0.02,0-0.03c0-0.01,0-0.02,0-0.02c0-0.01,0-0.02,0-0.03c0-0.01,0-0.02,0-0.03c0-0.01,0-0.02,0-0.03
			c0-0.01,0-0.02,0-0.03c0-0.01,0-0.02,0-0.03c0-0.01,0-0.02,0-0.03c0-0.01,0-0.02,0-0.03c0-0.01,0-0.02,0-0.03
			c0-0.01,0-0.01,0-0.02c0-0.01,0-0.02,0-0.03c0-0.01,0-0.02,0-0.03c0-0.01,0-0.02,0-0.03c0-0.01,0-0.02,0-0.02
			c0-0.01,0-0.02,0-0.03c0-0.01,0-0.02,0-0.03c0-0.01,0-0.02,0-0.03c0-0.01,0-0.02,0-0.03c0-0.01,0-0.02,0-0.03
			c0-0.01,0-0.02,0-0.03c0-0.01,0-0.02,0-0.03c0-0.01,0-0.02,0-0.03c0-0.01,0-0.02,0-0.03c0-0.01,0-0.02,0-0.03s0-0.02,0-0.03
			c0-0.01,0-0.02,0-0.03c0-0.01,0-0.02,0-0.03c0-0.01,0-0.02,0-0.03c0-0.01,0-0.02,0-0.03c0-0.01,0-0.02,0-0.03
			c0-0.01,0-0.02,0-0.03c0-0.01,0-0.02,0-0.03c0-0.01,0-0.02,0-0.03c0-0.01,0-0.02,0-0.03c0-0.01,0-0.02,0-0.03
			c0-0.01,0-0.02,0-0.04c0-0.01,0-0.02,0-0.03c0-0.01,0-0.02,0-0.03c-0.01-0.1,0.04-0.15,0.1-0.19c0-0.02,0-0.05,0-0.08l0.03-0.12
			l0.12-0.03c0.11-0.03,0.19,0.01,0.24,0.07c0.04-0.05,0.1-0.1,0.19-0.1c0.08,0,0.14,0.02,0.19,0.07c0.04-0.05,0.09-0.08,0.18-0.09
			c0.08-0.01,0.14,0.02,0.19,0.07c0.04-0.05,0.1-0.09,0.18-0.09c0.08-0.01,0.14,0.02,0.19,0.07c0.04-0.05,0.1-0.09,0.18-0.09
			c0.08,0,0.14,0.02,0.19,0.07c0.04-0.05,0.09-0.09,0.18-0.09c0.08,0,0.14,0.02,0.19,0.07c0.04-0.05,0.1-0.09,0.18-0.09
			c0.08,0,0.14,0.03,0.19,0.07c0.04-0.05,0.1-0.09,0.18-0.09c0.08-0.01,0.14,0.03,0.19,0.07c0.04-0.05,0.1-0.09,0.18-0.09
			c0.08,0,0.14,0.03,0.19,0.07c0.04-0.05,0.1-0.09,0.18-0.09c0.08,0,0.14,0.03,0.19,0.07c0.04-0.05,0.1-0.09,0.18-0.09
			c0.08-0.01,0.14,0.03,0.19,0.07c0.04-0.05,0.1-0.09,0.18-0.09c0.08,0,0.14,0.02,0.19,0.07c0.04-0.05,0.1-0.09,0.18-0.09
			c0.08,0,0.14,0.02,0.19,0.07c0.04-0.05,0.1-0.09,0.18-0.09c0.08-0.01,0.14,0.02,0.19,0.07c0.04-0.05,0.1-0.09,0.18-0.09
			c0.08,0,0.14,0.02,0.19,0.07c0.04-0.05,0.1-0.09,0.18-0.09c0.08,0,0.14,0.03,0.19,0.07c0.04-0.05,0.1-0.09,0.18-0.09
			c0.09,0,0.14,0.03,0.19,0.07c0.04-0.05,0.1-0.09,0.18-0.09c0.08,0,0.14,0.03,0.19,0.07c0.04-0.05,0.1-0.09,0.18-0.09
			c0.08-0.01,0.14,0.03,0.19,0.07c0.04-0.05,0.1-0.09,0.18-0.09c0.08-0.01,0.14,0.03,0.19,0.07c0.04-0.05,0.1-0.09,0.18-0.09
			c0.08,0,0.14,0.03,0.19,0.07c0.04-0.05,0.1-0.09,0.18-0.09c0.08,0,0.14,0.03,0.19,0.07c0.04-0.05,0.1-0.09,0.18-0.09
			c0.08-0.01,0.14,0.02,0.19,0.07c0.04-0.05,0.1-0.09,0.18-0.09c0.08-0.01,0.14,0.02,0.19,0.07c0.04-0.05,0.1-0.09,0.18-0.09
			c0.09,0,0.14,0.03,0.19,0.07c0.04-0.05,0.1-0.09,0.18-0.09c0.08-0.01,0.14,0.03,0.19,0.07c0.04-0.05,0.1-0.09,0.18-0.09
			c0.09-0.01,0.14,0.03,0.19,0.07c0.04-0.05,0.1-0.09,0.18-0.09c0.08-0.01,0.14,0.02,0.19,0.07c0.04-0.05,0.1-0.09,0.18-0.09
			c0.08,0,0.14,0.03,0.19,0.07c0.04-0.05,0.1-0.09,0.18-0.09c0.08,0,0.14,0.03,0.19,0.07c0.04-0.05,0.1-0.09,0.18-0.09
			c0.08-0.01,0.15,0.03,0.19,0.07c0.04-0.05,0.1-0.09,0.18-0.09c0.08-0.01,0.14,0.03,0.19,0.07c0.04-0.05,0.1-0.09,0.18-0.09
			c0.08-0.01,0.14,0.03,0.19,0.07c0.04-0.05,0.1-0.09,0.18-0.09c0.09-0.01,0.15,0.03,0.19,0.07c0.04-0.05,0.1-0.09,0.18-0.09
			c0.09,0,0.15,0.03,0.19,0.07c0.04-0.05,0.1-0.09,0.18-0.1c0.09-0.01,0.16,0.03,0.2,0.08c0.05-0.06,0.12-0.11,0.22-0.1l0.13,0.01
			l0.05,0.12c0.01,0.02,0.01,0.05,0.02,0.07c0.07,0.02,0.12,0.07,0.12,0.17c0,0.01,0,0.02,0,0.03c0,0.01,0,0.02,0,0.03
			c0,0.01,0,0.02,0,0.03c0,0.01,0,0.02,0,0.03c0,0.01,0,0.02,0,0.03c0,0.01,0,0.01,0,0.02c0,0.01,0,0.02,0,0.03
			c0,0.01,0,0.02,0,0.03c0,0.01,0,0.02,0,0.03c0,0.01,0,0.02,0,0.03c0,0.01,0,0.02,0,0.03c0,0.01,0,0.01,0,0.02
			c0,0.01,0,0.02,0,0.03c0,0.01,0,0.02,0,0.03c0,0.01,0,0.02,0,0.03c0,0.01,0,0.02,0,0.03c0,0.01,0,0.02,0,0.03
			c0,0.01,0,0.02,0,0.03c0,0.01,0,0.02,0,0.03c0,0.01,0,0.02,0,0.03c0,0.01,0,0.02,0,0.03c0,0.01,0,0.02,0,0.03
			c0,0.01,0,0.02,0,0.03c0,0.01,0,0.02,0,0.03c0,0.01,0,0.02,0,0.03c0,0.01,0,0.02,0,0.03c0,0.01,0,0.02,0,0.03
			c0,0.01,0,0.02,0,0.02c0,0.01,0,0.02,0,0.03c0,0.01,0,0.02,0,0.02c0,0.01,0,0.02,0,0.03c0,0.01,0,0.02,0,0.02
			c0,0.01,0,0.02,0,0.03c0,0.01,0,0.02,0,0.02c0,0.01,0,0.02,0,0.03c0,0.01,0,0.02,0,0.03c0,0.01,0,0.02,0,0.03
			c0,0.01,0,0.02,0,0.03c0,0.01,0,0.02,0,0.03c0,0.01,0,0.02,0,0.03c0,0.01,0,0.02,0,0.03c0,0.01,0,0.02,0,0.03
			c0,0.01,0,0.02,0,0.03c0,0.01,0,0.02,0,0.03c0,0.01,0,0.02,0,0.03c0,0.01,0,0.02,0,0.03c0,0.01,0,0.02,0,0.03
			c0,0.01,0,0.02,0,0.03c0,0.01,0,0.02,0,0.03c0,0.01,0,0.02,0,0.03s0,0.02,0,0.03c0,0.01,0,0.02,0,0.03c0,0.01,0,0.02,0,0.03
			c0,0.01,0,0.02,0,0.03s0,0.02,0,0.03c0,0.01,0,0.02,0,0.03c0,0.01,0,0.02,0,0.03c0,0.01,0,0.02,0,0.03c0,0.01,0,0.02,0,0.03
			c0,0.01,0,0.02,0,0.03c0,0.01,0,0.02,0,0.03c0,0.01,0,0.02,0,0.03c0,0.01,0,0.02,0,0.03c0,0.01,0,0.02,0,0.03
			c0,0.01,0,0.02,0,0.03c0,0.01,0,0.02,0,0.03c0,0.01,0,0.02,0,0.03c0,0.01,0,0.02,0,0.03c0,0.1-0.04,0.15-0.1,0.19l0,0.05
			l-0.01,0.15l-0.14,0.04c-0.1,0.02-0.17-0.01-0.23-0.06c0,0-0.01,0-0.01-0.01c-0.04,0.05-0.1,0.09-0.18,0.1
			c-0.08,0.01-0.14-0.02-0.19-0.07c-0.04,0.05-0.09,0.09-0.18,0.09c-0.08,0.01-0.14-0.02-0.19-0.07c-0.04,0.05-0.1,0.09-0.18,0.09
			c-0.08,0.01-0.14-0.02-0.19-0.07c-0.04,0.05-0.09,0.09-0.18,0.09c-0.09,0.01-0.14-0.02-0.19-0.07c-0.04,0.05-0.1,0.09-0.18,0.09
			c-0.08,0.01-0.14-0.02-0.19-0.07c-0.04,0.05-0.09,0.09-0.18,0.09c-0.08,0.01-0.14-0.03-0.19-0.07c-0.04,0.05-0.1,0.09-0.18,0.09
			c-0.08,0-0.14-0.03-0.19-0.07c-0.04,0.05-0.1,0.09-0.18,0.09c-0.08,0-0.14-0.03-0.19-0.07c-0.04,0.05-0.1,0.09-0.18,0.09
			c-0.08,0-0.14-0.03-0.19-0.07c-0.04,0.05-0.1,0.09-0.18,0.09c-0.08,0-0.14-0.03-0.19-0.07c-0.04,0.05-0.1,0.09-0.18,0.09
			c-0.08,0-0.14-0.03-0.19-0.07c-0.04,0.05-0.1,0.09-0.18,0.09c-0.08,0-0.14-0.02-0.19-0.07c-0.04,0.05-0.09,0.09-0.18,0.09
			c-0.08,0-0.14-0.03-0.19-0.07c-0.04,0.05-0.1,0.09-0.18,0.09c-0.09,0.01-0.14-0.03-0.19-0.07c-0.04,0.05-0.1,0.09-0.18,0.09
			c-0.09,0-0.14-0.03-0.19-0.07c-0.04,0.05-0.1,0.09-0.18,0.09c-0.08,0-0.14-0.03-0.19-0.07c-0.04,0.05-0.1,0.09-0.18,0.09
			c-0.08,0-0.14-0.02-0.19-0.07c-0.04,0.05-0.1,0.09-0.18,0.09c-0.08,0-0.14-0.02-0.19-0.07c-0.04,0.05-0.1,0.09-0.18,0.09
			c-0.08,0.01-0.14-0.03-0.19-0.07c-0.04,0.05-0.1,0.09-0.18,0.09c-0.09,0.01-0.14-0.03-0.19-0.07c-0.04,0.05-0.1,0.09-0.18,0.09
			c-0.08,0.01-0.14-0.03-0.19-0.07c-0.04,0.05-0.1,0.09-0.18,0.09c-0.08,0.01-0.14-0.02-0.19-0.07c-0.04,0.05-0.1,0.09-0.18,0.09
			c-0.08,0.01-0.14-0.02-0.19-0.07c-0.04,0.05-0.1,0.09-0.18,0.09c-0.08,0-0.14-0.03-0.19-0.07c-0.04,0.05-0.1,0.09-0.18,0.09
			c-0.08,0-0.14-0.03-0.19-0.07c-0.04,0.05-0.1,0.09-0.18,0.09c-0.08,0-0.14-0.03-0.19-0.07c-0.04,0.05-0.1,0.09-0.18,0.09
			c-0.08,0.01-0.14-0.03-0.19-0.07c-0.04,0.05-0.1,0.09-0.18,0.09c-0.08,0.01-0.14-0.03-0.19-0.07c-0.04,0.05-0.1,0.09-0.18,0.09
			c-0.08,0-0.14-0.03-0.19-0.07c-0.04,0.05-0.1,0.09-0.18,0.09c-0.09,0.01-0.14-0.03-0.19-0.07c-0.04,0.05-0.1,0.09-0.18,0.09
			c-0.09,0-0.14-0.03-0.19-0.07c-0.04,0.05-0.1,0.09-0.18,0.09c-0.08,0.01-0.14-0.03-0.19-0.07c-0.04,0.05-0.1,0.09-0.18,0.09
			c-0.08,0-0.15-0.03-0.19-0.07c-0.04,0.05-0.1,0.09-0.18,0.09c-0.09,0.01-0.15-0.03-0.19-0.07c-0.04,0.05-0.1,0.09-0.18,0.1
			c-0.09,0.01-0.16-0.03-0.2-0.08C64.94,58.17,64.88,58.21,64.79,58.21z M65.11,57.57c0.02,0.01,0.03,0.02,0.04,0.03
			c0.04-0.05,0.1-0.09,0.18-0.1c0.09-0.01,0.15,0.03,0.19,0.07c0.04-0.05,0.1-0.09,0.18-0.1c0.09-0.01,0.15,0.03,0.19,0.07
			c0.04-0.05,0.1-0.09,0.18-0.09c0.08-0.01,0.14,0.03,0.19,0.07c0.04-0.05,0.1-0.09,0.18-0.09c0.08-0.01,0.15,0.03,0.19,0.07
			c0.04-0.05,0.1-0.09,0.18-0.09c0.08-0.01,0.14,0.03,0.19,0.07c0.04-0.05,0.1-0.09,0.18-0.09c0.09,0,0.14,0.03,0.19,0.07
			c0.04-0.05,0.1-0.09,0.18-0.09c0.08,0,0.14,0.03,0.19,0.07c0.04-0.05,0.1-0.09,0.18-0.09c0.08,0,0.14,0.03,0.19,0.07
			c0.04-0.05,0.1-0.09,0.18-0.09c0.08,0,0.14,0.03,0.19,0.07c0.04-0.05,0.1-0.09,0.18-0.09c0.09,0,0.14,0.03,0.19,0.07
			c0.04-0.05,0.1-0.09,0.18-0.09c0.08-0.01,0.14,0.02,0.19,0.07c0.04-0.05,0.1-0.09,0.18-0.09c0.08,0,0.14,0.02,0.19,0.07
			c0.04-0.05,0.1-0.09,0.18-0.09c0.09-0.01,0.14,0.03,0.19,0.07c0.04-0.05,0.1-0.09,0.18-0.09c0.08,0,0.14,0.03,0.19,0.07
			c0.04-0.05,0.1-0.09,0.18-0.09c0.08-0.01,0.14,0.03,0.19,0.07c0.04-0.05,0.1-0.09,0.18-0.09c0.08,0,0.14,0.02,0.19,0.07
			c0.04-0.05,0.1-0.09,0.18-0.09c0.09-0.01,0.14,0.02,0.19,0.07c0.04-0.05,0.1-0.09,0.18-0.09c0.08,0,0.14,0.03,0.19,0.07
			c0.04-0.05,0.1-0.09,0.18-0.09c0.08-0.01,0.14,0.03,0.19,0.07c0.04-0.05,0.1-0.09,0.18-0.09c0.08-0.01,0.14,0.02,0.19,0.07
			c0.04-0.05,0.1-0.09,0.18-0.09c0.08-0.01,0.14,0.02,0.19,0.07c0.04-0.05,0.1-0.09,0.18-0.09c0.08-0.01,0.14,0.02,0.19,0.07
			c0.04-0.05,0.1-0.09,0.18-0.09c0.08,0,0.14,0.02,0.19,0.07c0.04-0.05,0.1-0.09,0.18-0.09c0.08,0,0.14,0.03,0.19,0.07
			c0.04-0.05,0.1-0.09,0.18-0.09c0.08-0.01,0.14,0.02,0.19,0.07c0.04-0.05,0.1-0.09,0.18-0.09c0.09,0,0.14,0.03,0.19,0.07
			c0.04-0.05,0.1-0.09,0.18-0.09c0.08,0,0.14,0.03,0.19,0.07c0.04-0.05,0.1-0.09,0.18-0.09c0.08-0.01,0.14,0.03,0.19,0.07
			c0.04-0.05,0.1-0.09,0.18-0.09c0.08-0.01,0.14,0.02,0.19,0.07c0.04-0.05,0.1-0.09,0.18-0.09c0.08,0,0.14,0.02,0.19,0.07
			c0.04-0.05,0.1-0.09,0.18-0.09c0.08-0.01,0.14,0.02,0.19,0.07c0.04-0.05,0.1-0.09,0.18-0.09c0.08,0,0.14,0.02,0.19,0.07
			c0.04-0.05,0.09-0.09,0.18-0.09c0.08,0,0.14,0.02,0.19,0.07c0.04-0.05,0.1-0.09,0.18-0.09c0.08,0,0.14,0.02,0.19,0.07
			c0.01-0.01,0.02-0.02,0.03-0.03c0,0,0,0,0,0c0-0.01,0-0.02,0-0.03c0-0.01,0-0.01,0-0.02c0-0.01,0-0.02,0-0.03
			c0-0.01,0-0.02,0-0.03c0-0.01,0-0.02,0-0.03c0-0.01,0-0.02,0-0.03c0-0.01,0-0.02,0-0.03c0-0.01,0-0.02,0-0.03s0-0.02,0-0.03
			c0-0.01,0-0.02,0-0.03s0-0.02,0-0.03c0-0.01,0-0.02,0-0.03s0-0.02,0-0.03c0-0.01,0-0.02,0-0.03s0-0.02,0-0.03
			c0-0.01,0-0.02,0-0.03c0-0.01,0-0.02,0-0.03c0-0.01,0-0.02,0-0.03s0-0.02,0-0.03c0-0.01,0-0.02,0-0.03c0-0.01,0-0.02,0-0.03
			c0-0.01,0-0.01,0-0.02c0-0.01,0-0.02,0-0.03c0-0.01,0-0.02,0-0.03c0-0.01,0-0.02,0-0.03c0-0.01,0-0.02,0-0.03
			c0-0.01,0-0.02,0-0.03c0-0.01,0-0.02,0-0.03c0-0.01,0-0.02,0-0.02c0-0.01,0-0.02,0-0.03c0-0.01,0-0.02,0-0.02
			c0-0.01,0-0.02,0-0.03c0-0.01,0-0.02,0-0.03c0-0.01,0-0.02,0-0.03c0-0.01,0-0.02,0-0.03c0-0.01,0-0.02,0-0.03
			c0-0.01,0-0.02,0-0.03c0-0.01,0-0.02,0-0.03c0-0.01,0-0.02,0-0.03c0-0.01,0-0.02,0-0.03c0-0.01,0-0.02,0-0.03
			c0-0.01,0-0.01,0-0.02c0-0.01,0-0.02,0-0.03c0-0.01,0-0.02,0-0.03c0-0.01,0-0.02,0-0.03c0-0.01,0-0.01,0-0.02
			c0-0.01,0-0.02,0-0.03c0-0.01,0-0.02,0-0.03c0-0.01,0-0.02,0-0.03c0-0.01,0-0.02,0-0.03c0-0.01,0-0.02,0-0.03
			c0-0.01,0-0.01,0-0.02c0-0.01,0-0.01,0-0.02c-0.02-0.01-0.03-0.02-0.04-0.03c-0.04,0.05-0.1,0.09-0.18,0.1
			c-0.09,0.01-0.15-0.03-0.19-0.07c-0.04,0.05-0.1,0.09-0.18,0.1c-0.09,0.01-0.15-0.03-0.19-0.07c-0.04,0.05-0.1,0.09-0.18,0.09
			c-0.08,0-0.14-0.03-0.19-0.07c-0.04,0.05-0.1,0.09-0.18,0.09c-0.09,0-0.14-0.03-0.19-0.07c-0.04,0.05-0.1,0.09-0.18,0.09
			c-0.09,0.01-0.14-0.03-0.19-0.07c-0.04,0.05-0.1,0.09-0.18,0.09c-0.08,0-0.14-0.03-0.19-0.07c-0.04,0.05-0.1,0.09-0.18,0.09
			c-0.08,0-0.14-0.03-0.19-0.07c-0.04,0.05-0.1,0.09-0.18,0.09c-0.08,0.01-0.14-0.02-0.19-0.07c-0.04,0.05-0.1,0.09-0.18,0.09
			c-0.08,0-0.14-0.03-0.19-0.07c-0.04,0.05-0.1,0.09-0.18,0.09c-0.08,0.01-0.14-0.03-0.19-0.07c-0.04,0.05-0.1,0.09-0.18,0.09
			c-0.09,0.01-0.14-0.03-0.19-0.07c-0.04,0.05-0.1,0.09-0.18,0.09c-0.08,0.01-0.14-0.03-0.19-0.07c-0.04,0.05-0.1,0.09-0.18,0.09
			c-0.08,0-0.14-0.02-0.19-0.07c-0.04,0.05-0.1,0.09-0.18,0.09c-0.08,0-0.14-0.03-0.19-0.07c-0.04,0.05-0.1,0.09-0.18,0.09
			c-0.09,0-0.14-0.03-0.19-0.07c-0.04,0.05-0.1,0.09-0.18,0.09c-0.09,0-0.14-0.03-0.19-0.07c-0.04,0.05-0.1,0.09-0.18,0.09
			c-0.08,0.01-0.14-0.03-0.19-0.07c-0.04,0.05-0.1,0.09-0.18,0.09c-0.08,0.01-0.14-0.02-0.19-0.07c-0.04,0.05-0.1,0.09-0.18,0.09
			c-0.08,0.01-0.14-0.03-0.19-0.07c-0.04,0.05-0.1,0.09-0.18,0.09c-0.09,0-0.14-0.03-0.19-0.07c-0.04,0.05-0.1,0.09-0.18,0.09
			c-0.08,0.01-0.14-0.02-0.19-0.07c-0.04,0.05-0.1,0.09-0.18,0.09c-0.08,0.01-0.14-0.02-0.19-0.07c-0.04,0.05-0.1,0.09-0.18,0.09
			c-0.08,0-0.14-0.03-0.19-0.07c-0.04,0.05-0.1,0.09-0.18,0.09c-0.08,0.01-0.14-0.02-0.19-0.07c-0.04,0.05-0.09,0.09-0.18,0.09
			c-0.08,0-0.14-0.03-0.19-0.07c-0.04,0.05-0.1,0.09-0.18,0.09c-0.08,0.01-0.14-0.03-0.19-0.07c-0.04,0.05-0.1,0.09-0.18,0.09
			c-0.08,0-0.14-0.03-0.19-0.07c-0.04,0.05-0.1,0.09-0.18,0.09c-0.08,0-0.14-0.02-0.19-0.07c-0.04,0.05-0.1,0.09-0.18,0.09
			c-0.08,0.01-0.14-0.02-0.19-0.07c-0.04,0.05-0.1,0.09-0.18,0.09c-0.09,0-0.14-0.02-0.19-0.07c-0.04,0.05-0.1,0.09-0.18,0.09
			c-0.08,0.01-0.14-0.02-0.19-0.07c-0.04,0.05-0.09,0.09-0.18,0.09c-0.08,0-0.14-0.02-0.19-0.07c-0.04,0.05-0.1,0.09-0.18,0.09
			c-0.08,0.01-0.14-0.02-0.19-0.07c-0.04,0.05-0.09,0.09-0.18,0.09c-0.08,0.01-0.14-0.02-0.19-0.07c-0.01,0.01-0.02,0.02-0.03,0.03
			c0,0,0,0,0,0c0,0.01,0,0.02,0,0.03c0,0.01,0,0.02,0,0.03c0,0.01,0,0.02,0,0.03c0,0.01,0,0.02,0,0.03c0,0.01,0,0.02,0,0.03
			c0,0.01,0,0.02,0,0.03c0,0.01,0,0.02,0,0.03c0,0.01,0,0.02,0,0.03c0,0.01,0,0.02,0,0.03c0,0.01,0,0.02,0,0.03
			c0,0.01,0,0.02,0,0.03c0,0.01,0,0.02,0,0.03c0,0.01,0,0.02,0,0.03c0,0.01,0,0.02,0,0.03c0,0.01,0,0.02,0,0.03
			c0,0.01,0,0.02,0,0.03s0,0.02,0,0.03c0,0.01,0,0.02,0,0.03c0,0.01,0,0.02,0,0.03c0,0.01,0,0.02,0,0.03c0,0.01,0,0.02,0,0.03
			c0,0.01,0,0.02,0,0.03c0,0.01,0,0.02,0,0.03c0,0.01,0,0.01,0,0.02c0,0.01,0,0.02,0,0.03c0,0.01,0,0.02,0,0.03
			c0,0.01,0,0.02,0,0.02c0,0.01,0,0.02,0,0.03c0,0.01,0,0.02,0,0.03c0,0.01,0,0.02,0,0.03c0,0.01,0,0.02,0,0.02
			c0,0.01,0,0.02,0,0.03c0,0.01,0,0.02,0,0.03c0,0.01,0,0.02,0,0.03c0,0.01,0,0.02,0,0.03c0,0.01,0,0.01,0,0.02
			c0,0.01,0,0.02,0,0.03c0,0.01,0,0.02,0,0.03c0,0.01,0,0.02,0,0.03c0,0.01,0,0.02,0,0.03c0,0.01,0,0.02,0,0.03
			c0,0.01,0,0.02,0,0.03c0,0.01,0,0.02,0,0.03c0,0.01,0,0.02,0,0.03c0,0.01,0,0.02,0,0.03c0,0.01,0,0.02,0,0.03
			c0,0.01,0,0.02,0,0.03c0,0.01,0,0.01,0,0.02c0,0.01,0,0.02,0,0.03c0,0.01,0,0.02,0,0.03c0,0.01,0,0.02,0,0.03
			c0,0.01,0,0.01,0,0.02C65.11,57.55,65.11,57.56,65.11,57.57z"/>
	</g>
	<g>
		<path class="st4" d="M83.78,56.88c-0.02,0-0.03,0-0.05,0l-0.12-0.02l-0.04-0.12c0-0.01-0.01-0.02-0.01-0.04
			c-0.04-0.03-0.06-0.08-0.06-0.13c0-0.01,0-0.02,0-0.03c0-0.01,0-0.01,0-0.02c0-0.01,0-0.02,0-0.03c0-0.01,0-0.02,0-0.03
			c0-0.01,0-0.02,0-0.03c0-0.01,0-0.02,0-0.03c0-0.01,0-0.02,0-0.03c0-0.01,0-0.01,0-0.02c0-0.01,0-0.02,0-0.03
			c0-0.01,0-0.02,0-0.03c0-0.01,0-0.02,0-0.03c0-0.01,0-0.02,0-0.03c0-0.01,0-0.02,0-0.03c0-0.01,0-0.02,0-0.03
			c0-0.01,0-0.02,0-0.03c0-0.01,0-0.02,0-0.03c0-0.01,0-0.02,0-0.03c0-0.01,0-0.01,0-0.02c0-0.01,0-0.02,0-0.03
			c0-0.01,0-0.02,0-0.03c0-0.01,0-0.02,0-0.03c0-0.01,0-0.01,0-0.02c0-0.01,0-0.02,0-0.03c0-0.01,0-0.02,0-0.03
			c0-0.01,0-0.02,0-0.03c0-0.01,0-0.01,0-0.02c0-0.01,0-0.02,0-0.03c0-0.01,0-0.02,0-0.03c0-0.01,0-0.02,0-0.03
			c0-0.01,0-0.02,0-0.03c0-0.01,0-0.02,0-0.03c0-0.01,0-0.02,0-0.03c0-0.01,0-0.02,0-0.03c0-0.01,0-0.02,0-0.03
			c0-0.01,0-0.02,0-0.03c0-0.01,0-0.01,0-0.02c0-0.01,0-0.02,0-0.03c0-0.01,0-0.02,0-0.03c0-0.01,0-0.02,0-0.03
			c0-0.01,0-0.02,0-0.03c0-0.01,0-0.02,0-0.03c0-0.01,0-0.01,0-0.02c0-0.01,0-0.02,0-0.03c0-0.01,0-0.02,0-0.03
			c0-0.01,0-0.02,0-0.03c0-0.01,0-0.02,0-0.03c0-0.01,0-0.02,0-0.03c0-0.01,0-0.02,0-0.03c0-0.01,0-0.02,0-0.03
			c0-0.01,0-0.02,0-0.03s0-0.02,0-0.03c0-0.01,0-0.02,0-0.03c0-0.01,0-0.02,0-0.03c0-0.01,0-0.02,0-0.03c0-0.01,0-0.02,0-0.03
			c0-0.01,0-0.02,0-0.03c0-0.01,0-0.02,0-0.03c0-0.01,0-0.02,0-0.03c0-0.01,0-0.02,0-0.03c0-0.01,0-0.02,0-0.03
			c0-0.01,0-0.02,0-0.03c0-0.01,0-0.02,0-0.02c0-0.01,0-0.02,0-0.03c0-0.01,0-0.02,0-0.04c0-0.01,0-0.02,0-0.03
			c0-0.01,0-0.02,0-0.03c0-0.01,0-0.02,0-0.03c0-0.01,0-0.02,0-0.04c0-0.05,0.01-0.1,0.04-0.13c0-0.01,0-0.03,0-0.04l0.01-0.12
			l0.11-0.05c0.04-0.02,0.11-0.03,0.18,0c0.03-0.02,0.07-0.03,0.11-0.03c0.04,0,0.07,0,0.1,0.01c0.03-0.02,0.06-0.03,0.09-0.03
			c0.03,0,0.07,0,0.1,0.01c0.03-0.01,0.06-0.02,0.09-0.03c0.04,0,0.07,0,0.1,0.02c0.03-0.02,0.06-0.03,0.09-0.03
			c0.04,0,0.07,0,0.1,0.01c0.03-0.02,0.06-0.03,0.1-0.03c0.04,0,0.07,0,0.1,0.01c0.03-0.01,0.06-0.03,0.1-0.03
			c0.04,0,0.07,0,0.1,0.02c0.03-0.02,0.06-0.03,0.1-0.03c0.04,0,0.07,0,0.1,0.01c0.03-0.02,0.06-0.03,0.1-0.03
			c0.04,0,0.07,0,0.1,0.01c0.03-0.02,0.06-0.03,0.1-0.03c0.04,0,0.07,0,0.1,0.02c0.03-0.02,0.06-0.03,0.1-0.03
			c0.03,0,0.07,0,0.1,0.01c0.03-0.02,0.06-0.03,0.1-0.03c0.03,0,0.07,0,0.1,0.01c0.03-0.02,0.06-0.03,0.09-0.03
			c0.04,0,0.07,0,0.1,0.01c0.03-0.02,0.06-0.02,0.09-0.03c0.03,0,0.07,0,0.1,0.01c0.03-0.02,0.06-0.03,0.09-0.03
			c0.04,0,0.07,0,0.1,0.02c0.03-0.02,0.06-0.03,0.09-0.03c0.04,0,0.07,0,0.1,0.01c0.03-0.02,0.06-0.03,0.1-0.03
			c0.04,0,0.07,0,0.1,0.01c0.03-0.02,0.06-0.03,0.1-0.03c0.04,0,0.07,0,0.1,0.01c0.03-0.02,0.06-0.03,0.1-0.03
			c0.03,0,0.07,0,0.1,0.01c0.03-0.02,0.06-0.03,0.1-0.03c0.04,0,0.07,0,0.1,0.01c0.03-0.02,0.06-0.03,0.09-0.03
			c0.04,0,0.07,0,0.1,0.01c0.03-0.02,0.06-0.03,0.1-0.03c0.04,0,0.07,0,0.1,0.01c0.03-0.02,0.06-0.03,0.1-0.03
			c0.04,0,0.07,0,0.1,0.02c0.03-0.02,0.06-0.03,0.09-0.03c0.04,0,0.07,0,0.1,0.02c0.03-0.02,0.06-0.03,0.1-0.03
			c0.04,0,0.07,0,0.1,0.02c0.03-0.02,0.06-0.03,0.1-0.03c0.04,0,0.07,0,0.1,0.02c0.03-0.02,0.06-0.03,0.1-0.03
			c0.04,0,0.07,0,0.1,0.02c0.03-0.02,0.06-0.03,0.1-0.03c0.04,0,0.07,0,0.1,0.02c0.03-0.02,0.06-0.03,0.1-0.03
			c0.04,0,0.07,0,0.1,0.02c0.03-0.02,0.06-0.03,0.1-0.03c0.04,0,0.07,0,0.1,0.01c0.03-0.02,0.06-0.03,0.1-0.03
			c0.04,0,0.07,0,0.1,0.02c0.03-0.02,0.06-0.03,0.1-0.03c0.04,0,0.07,0,0.1,0.02c0.03-0.02,0.06-0.03,0.1-0.03
			c0.04,0,0.07,0,0.1,0.02c0.03-0.02,0.06-0.03,0.1-0.03c0.04,0,0.07,0,0.1,0.02c0.03-0.02,0.06-0.03,0.1-0.03
			c0.04,0,0.07,0,0.1,0.02c0.03-0.02,0.06-0.03,0.1-0.03c0.05,0,0.08,0.01,0.12,0.02c0.06-0.04,0.11-0.04,0.16-0.03l0.12,0.02
			l0.04,0.12c0,0.01,0.01,0.02,0.01,0.04c0.04,0.03,0.06,0.08,0.06,0.13c0,0.01,0,0.02,0,0.03c0,0.01,0,0.01,0,0.02
			c0,0.01,0,0.02,0,0.03c0,0.01,0,0.02,0,0.03c0,0.01,0,0.02,0,0.03c0,0.01,0,0.02,0,0.03c0,0.01,0,0.02,0,0.03
			c0,0.01,0,0.01,0,0.02c0,0.01,0,0.02,0,0.03c0,0.01,0,0.02,0,0.03c0,0.01,0,0.02,0,0.03c0,0.01,0,0.02,0,0.03
			c0,0.01,0,0.02,0,0.03c0,0.01,0,0.02,0,0.03c0,0.01,0,0.02,0,0.03c0,0.01,0,0.02,0,0.03c0,0.01,0,0.02,0,0.03
			c0,0.01,0,0.01,0,0.02c0,0.01,0,0.02,0,0.03c0,0.01,0,0.02,0,0.03c0,0.01,0,0.02,0,0.03c0,0.01,0,0.01,0,0.02
			c0,0.01,0,0.02,0,0.03c0,0.01,0,0.02,0,0.03c0,0.01,0,0.02,0,0.03c0,0.01,0,0.01,0,0.02c0,0.01,0,0.02,0,0.03
			c0,0.01,0,0.02,0,0.03c0,0.01,0,0.02,0,0.03c0,0.01,0,0.02,0,0.03c0,0.01,0,0.02,0,0.03c0,0.01,0,0.02,0,0.03
			c0,0.01,0,0.02,0,0.03c0,0.01,0,0.02,0,0.03c0,0.01,0,0.02,0,0.03c0,0.01,0,0.01,0,0.02c0,0.01,0,0.02,0,0.03
			c0,0.01,0,0.02,0,0.02c0,0.01,0,0.02,0,0.03c0,0.01,0,0.02,0,0.03c0,0.01,0,0.02,0,0.03c0,0.01,0,0.01,0,0.02
			c0,0.01,0,0.02,0,0.03c0,0.01,0,0.02,0,0.03c0,0.01,0,0.02,0,0.03c0,0.01,0,0.02,0,0.03c0,0.01,0,0.02,0,0.03
			c0,0.01,0,0.02,0,0.03c0,0.01,0,0.02,0,0.03c0,0.01,0,0.02,0,0.03s0,0.02,0,0.03c0,0.01,0,0.02,0,0.03c0,0.01,0,0.02,0,0.03
			c0,0.01,0,0.02,0,0.03c0,0.01,0,0.02,0,0.03c0,0.01,0,0.02,0,0.03c0,0.01,0,0.02,0,0.03c0,0.01,0,0.02,0,0.03
			c0,0.01,0,0.02,0,0.03c0,0.01,0,0.02,0,0.03c0,0.01,0,0.02,0,0.03c0,0.01,0,0.02,0,0.02c0,0.01,0,0.02,0,0.03
			c0,0.01,0,0.02,0,0.04c0,0.01,0,0.02,0,0.03c0,0.01,0,0.02,0,0.03c0,0.01,0,0.02,0,0.03c0,0.01,0,0.02,0,0.04
			c0,0.06-0.01,0.1-0.04,0.13c0,0.01,0,0.01,0,0.01v0.13l-0.13,0.05c-0.04,0.02-0.11,0.03-0.18,0c-0.03,0.02-0.07,0.03-0.11,0.03
			c-0.04,0-0.07,0-0.1-0.01c-0.03,0.02-0.06,0.03-0.09,0.03c-0.04,0-0.07,0-0.1-0.01c-0.03,0.01-0.06,0.02-0.09,0.03
			c-0.04,0-0.07,0-0.1-0.02c-0.03,0.02-0.06,0.03-0.09,0.03c-0.04,0-0.07,0-0.1-0.01c-0.03,0.02-0.06,0.03-0.1,0.03
			c-0.04,0-0.07,0-0.1-0.01c-0.03,0.01-0.06,0.03-0.1,0.03c-0.04,0-0.07,0-0.1-0.02c-0.03,0.02-0.06,0.03-0.1,0.03
			c-0.03,0-0.07,0-0.1-0.01c-0.03,0.02-0.06,0.03-0.1,0.03c-0.03,0-0.07,0-0.1-0.01c-0.03,0.02-0.06,0.03-0.1,0.03
			c-0.03,0-0.07,0-0.1-0.02c-0.03,0.02-0.06,0.03-0.1,0.03c-0.03,0-0.07,0-0.1-0.01c-0.03,0.02-0.06,0.03-0.1,0.03
			c-0.03,0-0.07,0-0.1-0.01c-0.03,0.02-0.06,0.03-0.09,0.03c-0.04,0-0.07,0-0.1-0.01c-0.03,0.02-0.06,0.02-0.09,0.03
			c-0.04,0-0.07,0-0.1-0.01c-0.03,0.02-0.06,0.03-0.09,0.03c-0.04,0-0.07,0-0.1-0.02c-0.03,0.02-0.06,0.03-0.09,0.03
			c-0.04,0-0.07,0-0.1-0.01c-0.03,0.02-0.06,0.03-0.1,0.03c-0.04,0-0.07,0-0.1-0.01c-0.03,0.02-0.06,0.03-0.1,0.03
			c-0.03,0-0.07,0-0.1-0.01c-0.03,0.02-0.06,0.03-0.1,0.03c-0.03,0-0.07,0-0.1-0.01c-0.03,0.02-0.06,0.03-0.1,0.03
			c-0.03,0-0.07,0-0.1-0.01c-0.03,0.02-0.06,0.03-0.09,0.03c-0.04,0-0.07,0-0.1-0.01c-0.03,0.02-0.06,0.03-0.09,0.03
			c-0.04,0-0.07,0-0.1-0.01c-0.03,0.02-0.06,0.03-0.1,0.03c-0.04,0-0.07,0-0.1-0.02c-0.03,0.02-0.06,0.03-0.09,0.03
			c-0.04,0-0.07,0-0.1-0.02c-0.03,0.02-0.06,0.03-0.1,0.03c-0.04,0-0.07,0-0.1-0.02c-0.03,0.02-0.06,0.03-0.1,0.03
			c-0.04,0-0.07,0-0.1-0.02c-0.03,0.02-0.06,0.03-0.1,0.03c-0.03,0-0.07,0-0.1-0.02c-0.03,0.02-0.06,0.03-0.1,0.03
			c-0.04,0-0.07,0-0.1-0.02c-0.03,0.02-0.06,0.03-0.1,0.03c-0.04,0-0.07,0-0.1-0.02c-0.03,0.02-0.06,0.03-0.1,0.03
			c-0.04,0-0.07,0-0.1-0.01c-0.03,0.01-0.06,0.02-0.09,0.03c-0.04,0-0.07,0-0.1-0.02c-0.03,0.02-0.06,0.03-0.1,0.03
			c-0.04,0-0.07,0-0.1-0.02c-0.03,0.02-0.06,0.03-0.1,0.03c-0.04,0-0.07,0-0.1-0.02c-0.03,0.02-0.06,0.03-0.1,0.03
			c-0.04,0-0.07,0-0.1-0.02c-0.03,0.02-0.06,0.03-0.1,0.03c-0.04,0-0.07,0-0.1-0.02c-0.03,0.02-0.06,0.03-0.1,0.03
			c-0.05,0-0.08-0.01-0.12-0.02C83.86,56.87,83.82,56.88,83.78,56.88z M84.09,56.31c0.03,0,0.06,0.01,0.08,0.02
			c0.03-0.02,0.06-0.03,0.1-0.03c0.04,0,0.07,0,0.1,0.02c0.03-0.02,0.06-0.03,0.1-0.03c0.04,0,0.07,0,0.1,0.02
			c0.03-0.02,0.06-0.03,0.1-0.03c0.04,0,0.07,0,0.1,0.02c0.03-0.02,0.06-0.03,0.1-0.03c0.03,0,0.07,0,0.1,0.01
			c0.03-0.02,0.06-0.03,0.1-0.03c0.04,0,0.07,0,0.1,0.02c0.03-0.02,0.06-0.03,0.1-0.03c0.04,0,0.07,0,0.1,0.02
			c0.03-0.02,0.06-0.03,0.1-0.03c0.04,0,0.07,0,0.1,0.02c0.03-0.02,0.06-0.03,0.1-0.03c0.04,0,0.07,0,0.1,0.02
			c0.03-0.02,0.06-0.03,0.1-0.03c0.04,0,0.07,0,0.1,0.02c0.03-0.02,0.06-0.03,0.1-0.03c0.04,0,0.07,0,0.1,0.02
			c0.03-0.02,0.06-0.03,0.1-0.03c0.04,0,0.07,0,0.1,0.01c0.03-0.01,0.06-0.03,0.1-0.03c0.03,0,0.07,0,0.1,0.02
			c0.03-0.02,0.06-0.03,0.1-0.03c0.03,0,0.07,0,0.1,0.01c0.03-0.02,0.06-0.03,0.1-0.03c0.03,0,0.07,0,0.1,0.01
			c0.03-0.02,0.06-0.03,0.09-0.03c0.04,0,0.07,0,0.1,0.01c0.03-0.02,0.06-0.03,0.1-0.03c0.04,0,0.07,0,0.1,0.01
			c0.03-0.02,0.06-0.03,0.1-0.03c0.04,0,0.07,0,0.1,0.01c0.03-0.01,0.06-0.03,0.1-0.03c0.04,0,0.07,0,0.1,0.02
			c0.03-0.02,0.06-0.03,0.1-0.03c0.04,0,0.07,0,0.1,0.02c0.03-0.02,0.06-0.03,0.1-0.03c0.03,0,0.07,0,0.1,0.01
			c0.03-0.02,0.06-0.03,0.09-0.03c0.03,0,0.07,0,0.1,0.01c0.03-0.02,0.06-0.02,0.09-0.03c0.03,0,0.07,0,0.1,0.01
			c0.03-0.02,0.06-0.02,0.09-0.03c0.03,0,0.07,0,0.1,0.01c0.03-0.02,0.06-0.03,0.1-0.03c0.04,0,0.07,0,0.1,0.01
			c0.03-0.02,0.06-0.03,0.1-0.03c0.04,0,0.07,0,0.1,0.02c0.03-0.02,0.06-0.03,0.1-0.03c0.03,0,0.07,0,0.1,0.01
			c0.03-0.01,0.06-0.03,0.1-0.03c0.04,0,0.07,0,0.1,0.02c0.03-0.02,0.06-0.03,0.1-0.03c0.03,0,0.07,0,0.1,0.02
			c0.03-0.02,0.06-0.03,0.1-0.03c0.03,0,0.07,0,0.1,0.01c0.03-0.02,0.06-0.03,0.09-0.03c0.04,0,0.07,0,0.1,0.01
			c0.03-0.02,0.06-0.03,0.1-0.03c0.04,0,0.07,0,0.1,0.01c0.03-0.02,0.06-0.03,0.09-0.03c0.04,0,0.07,0,0.1,0.01
			c0.03-0.02,0.06-0.03,0.09-0.03c0.01,0,0.01,0,0.02,0c0,0,0,0,0-0.01c0-0.01,0-0.02,0-0.03c0-0.01,0-0.02,0-0.03
			c0-0.01,0-0.02,0-0.03c0-0.01,0-0.02,0-0.03c0-0.01,0-0.02,0-0.03c0-0.01,0-0.02,0-0.03c0-0.01,0-0.02,0-0.03
			c0-0.01,0-0.02,0-0.03c0-0.01,0-0.02,0-0.03c0-0.01,0-0.02,0-0.03c0-0.01,0-0.02,0-0.03c0-0.01,0-0.02,0-0.03
			c0-0.01,0-0.02,0-0.03c0-0.01,0-0.02,0-0.03c0-0.01,0-0.02,0-0.03c0-0.01,0-0.02,0-0.03c0-0.01,0-0.02,0-0.03
			c0-0.01,0-0.02,0-0.03c0-0.01,0-0.02,0-0.03c0-0.01,0-0.02,0-0.03c0-0.01,0-0.02,0-0.03c0-0.01,0-0.02,0-0.03
			c0-0.01,0-0.02,0-0.03c0-0.01,0-0.02,0-0.03c0-0.01,0-0.02,0-0.03c0-0.01,0-0.01,0-0.02c0-0.01,0-0.02,0-0.03
			c0-0.01,0-0.02,0-0.02c0-0.01,0-0.02,0-0.03c0-0.01,0-0.02,0-0.02c0-0.01,0-0.02,0-0.03c0-0.01,0-0.02,0-0.02
			c0-0.01,0-0.02,0-0.03c0-0.01,0-0.02,0-0.03c0-0.01,0-0.02,0-0.03c0-0.01,0-0.02,0-0.03c0-0.01,0-0.02,0-0.03
			c0-0.01,0-0.02,0-0.03c0-0.01,0-0.02,0-0.03c0-0.01,0-0.01,0-0.02c0-0.01,0-0.02,0-0.03c0-0.01,0-0.02,0-0.03
			c0-0.01,0-0.02,0-0.03c0-0.01,0-0.01,0-0.02c0-0.01,0-0.02,0-0.03c0-0.01,0-0.02,0-0.03c0-0.01,0-0.02,0-0.03
			c0-0.01,0-0.02,0-0.03c0-0.01,0-0.02,0-0.03c0-0.01,0-0.01,0-0.02c0-0.01,0-0.02,0-0.03c0-0.01,0-0.02,0-0.03
			c0-0.01,0-0.02,0-0.03c0,0,0,0,0,0c-0.01,0-0.02,0-0.03,0c-0.04,0-0.07,0-0.1-0.02c-0.03,0.02-0.06,0.03-0.1,0.03
			c-0.04,0-0.07,0-0.1-0.02c-0.03,0.02-0.06,0.03-0.1,0.03c-0.04,0-0.07,0-0.1-0.02c-0.03,0.02-0.06,0.03-0.1,0.03
			c-0.04,0-0.07,0-0.1-0.02c-0.03,0.02-0.06,0.03-0.1,0.03c-0.03,0-0.07,0-0.1-0.01c-0.03,0.02-0.06,0.03-0.1,0.03
			c-0.04,0-0.07,0-0.1-0.02c-0.03,0.02-0.06,0.03-0.1,0.03c-0.04,0-0.07,0-0.1-0.02c-0.03,0.02-0.06,0.03-0.1,0.03
			c-0.04,0-0.07,0-0.1-0.02c-0.03,0.02-0.06,0.03-0.1,0.03c-0.04,0-0.07,0-0.1-0.02c-0.03,0.02-0.06,0.03-0.1,0.03
			c-0.04,0-0.07,0-0.1-0.02c-0.03,0.02-0.06,0.03-0.1,0.03c-0.04,0-0.07,0-0.1-0.02c-0.03,0.02-0.06,0.03-0.1,0.03
			c-0.04,0-0.07,0-0.1-0.01c-0.03,0.01-0.06,0.03-0.1,0.03c-0.03,0-0.07,0-0.1-0.02c-0.03,0.02-0.06,0.03-0.1,0.03
			c-0.04,0-0.07,0-0.1-0.01c-0.03,0.02-0.06,0.03-0.1,0.03c-0.04,0-0.07,0-0.1-0.01c-0.03,0.02-0.06,0.03-0.1,0.03
			c-0.04,0-0.07,0-0.1-0.01c-0.03,0.02-0.06,0.03-0.1,0.03c-0.03,0-0.07,0-0.1-0.01c-0.03,0.02-0.06,0.03-0.1,0.03
			c-0.03,0-0.07,0-0.1-0.01c-0.03,0.01-0.06,0.03-0.1,0.03c-0.03,0-0.07,0-0.1-0.02c-0.03,0.02-0.06,0.03-0.1,0.03
			c-0.04,0-0.07,0-0.1-0.02c-0.03,0.02-0.06,0.03-0.1,0.03c-0.03,0-0.07,0-0.1-0.01c-0.03,0.02-0.06,0.03-0.09,0.03
			c-0.03,0-0.07,0-0.1-0.01c-0.03,0.02-0.06,0.02-0.09,0.03c-0.03,0-0.07,0-0.1-0.01c-0.03,0.02-0.06,0.02-0.09,0.03
			c-0.03,0-0.07,0-0.1-0.01c-0.03,0.02-0.06,0.03-0.1,0.03c-0.03,0-0.07,0-0.1-0.01c-0.03,0.02-0.06,0.03-0.1,0.03
			c-0.04,0-0.07,0-0.1-0.02c-0.03,0.02-0.06,0.03-0.1,0.03c-0.03,0-0.07,0-0.1-0.01c-0.03,0.01-0.06,0.03-0.1,0.03
			c-0.04,0-0.07,0-0.1-0.02c-0.03,0.02-0.06,0.03-0.1,0.03c-0.03,0-0.07,0-0.1-0.02c-0.03,0.02-0.06,0.03-0.1,0.03
			c-0.04,0-0.07,0-0.1-0.01c-0.03,0.02-0.06,0.03-0.09,0.03c-0.04,0-0.07,0-0.1-0.01c-0.03,0.02-0.06,0.03-0.1,0.03
			c-0.03,0-0.07,0-0.1-0.01c-0.03,0.02-0.06,0.03-0.09,0.03c-0.04,0-0.07,0-0.1-0.01c-0.03,0.02-0.06,0.03-0.1,0.03
			c-0.01,0-0.01,0-0.02,0c0,0,0,0,0,0.01c0,0.01,0,0.02,0,0.03c0,0.01,0,0.02,0,0.03c0,0.01,0,0.02,0,0.03c0,0.01,0,0.02,0,0.03
			c0,0.01,0,0.02,0,0.03c0,0.01,0,0.02,0,0.03c0,0.01,0,0.02,0,0.03c0,0.01,0,0.02,0,0.03c0,0.01,0,0.02,0,0.03
			c0,0.01,0,0.02,0,0.03c0,0.01,0,0.02,0,0.03c0,0.01,0,0.02,0,0.03c0,0.01,0,0.02,0,0.03c0,0.01,0,0.02,0,0.03
			c0,0.01,0,0.02,0,0.03c0,0.01,0,0.02,0,0.03c0,0.01,0,0.02,0,0.03c0,0.01,0,0.02,0,0.03c0,0.01,0,0.02,0,0.03
			c0,0.01,0,0.02,0,0.03c0,0.01,0,0.02,0,0.03c0,0.01,0,0.02,0,0.03c0,0.01,0,0.02,0,0.03c0,0.01,0,0.02,0,0.03
			c0,0.01,0,0.02,0,0.03c0,0.01,0,0.01,0,0.02c0,0.01,0,0.02,0,0.03c0,0.01,0,0.02,0,0.02c0,0.01,0,0.02,0,0.03
			c0,0.01,0,0.02,0,0.02c0,0.01,0,0.02,0,0.03c0,0.01,0,0.02,0,0.02c0,0.01,0,0.02,0,0.03c0,0.01,0,0.02,0,0.03
			c0,0.01,0,0.02,0,0.03c0,0.01,0,0.02,0,0.03c0,0.01,0,0.02,0,0.03c0,0.01,0,0.02,0,0.03c0,0.01,0,0.02,0,0.03
			c0,0.01,0,0.01,0,0.02c0,0.01,0,0.02,0,0.03c0,0.01,0,0.02,0,0.03c0,0.01,0,0.02,0,0.03c0,0.01,0,0.01,0,0.02
			c0,0.01,0,0.02,0,0.03c0,0.01,0,0.02,0,0.03c0,0.01,0,0.02,0,0.03c0,0.01,0,0.02,0,0.03c0,0.01,0,0.02,0,0.03
			c0,0.01,0,0.01,0,0.02c0,0.01,0,0.02,0,0.03c0,0.01,0,0.02,0,0.03c0,0.01,0,0.02,0,0.03c0,0,0,0,0,0c0.01,0,0.02,0,0.03,0
			C84.08,56.31,84.09,56.31,84.09,56.31z"/>
	</g>
	<g>
		<path class="st4" d="M67.58,61.58c-0.3,0-0.51-0.03-0.7-0.05c-0.27-0.04-0.52-0.07-1.03-0.04l-0.03-0.41
			c0.55-0.03,0.83,0,1.1,0.04c0.27,0.04,0.52,0.07,1.03,0.04c0.51-0.03,0.75-0.1,1.01-0.17c0.27-0.07,0.54-0.14,1.09-0.18
			c0.55-0.03,0.83,0,1.1,0.04c0.27,0.04,0.52,0.07,1.03,0.04c0.51-0.03,0.75-0.1,1.01-0.17c0.27-0.07,0.54-0.14,1.09-0.18
			c0.55-0.03,0.83,0,1.11,0.04c0.27,0.04,0.52,0.07,1.03,0.04l0.03,0.41c-0.55,0.03-0.83,0-1.11-0.04
			c-0.27-0.04-0.52-0.07-1.03-0.04c-0.51,0.03-0.75,0.1-1.01,0.17c-0.27,0.07-0.54,0.14-1.09,0.18c-0.55,0.03-0.83,0-1.11-0.04
			c-0.27-0.04-0.52-0.07-1.03-0.04c-0.51,0.03-0.75,0.1-1.01,0.17c-0.27,0.07-0.54,0.14-1.09,0.18
			C67.83,61.58,67.7,61.58,67.58,61.58z"/>
	</g>
	<g>
		<path class="st4" d="M80.03,60.73c-0.15,0-0.29-0.01-0.43-0.03c-0.17-0.02-0.34-0.03-0.49-0.02l-0.02-0.41
			c0.19-0.01,0.37,0.01,0.55,0.02c0.17,0.02,0.34,0.03,0.49,0.02c0.16-0.01,0.32-0.04,0.49-0.08c0.18-0.04,0.36-0.08,0.55-0.09
			c0.19-0.01,0.37,0.01,0.55,0.02c0.17,0.02,0.34,0.03,0.49,0.02c0.16-0.01,0.32-0.04,0.49-0.08c0.18-0.04,0.36-0.08,0.55-0.09
			c0.19-0.01,0.37,0.01,0.55,0.02c0.17,0.02,0.34,0.03,0.49,0.02l0.02,0.41c-0.19,0.01-0.37-0.01-0.55-0.02
			c-0.17-0.02-0.34-0.03-0.49-0.02c-0.16,0.01-0.32,0.04-0.49,0.08c-0.18,0.04-0.36,0.08-0.55,0.09c-0.19,0.01-0.37-0.01-0.55-0.02
			c-0.17-0.02-0.33-0.03-0.49-0.02c-0.16,0.01-0.32,0.04-0.49,0.08c-0.18,0.04-0.36,0.08-0.55,0.09
			C80.12,60.73,80.08,60.73,80.03,60.73z"/>
	</g>
	<g>
		<path class="st4" d="M77.86,63.89c-0.3,0-0.51-0.03-0.7-0.05c-0.27-0.04-0.52-0.07-1.03-0.04l-0.03-0.41
			c0.55-0.03,0.83,0,1.1,0.04c0.27,0.04,0.52,0.07,1.03,0.04c0.51-0.03,0.75-0.1,1.01-0.17c0.27-0.07,0.54-0.14,1.09-0.18
			c0.55-0.03,0.83,0,1.1,0.04c0.27,0.04,0.52,0.07,1.03,0.04c0.51-0.03,0.75-0.1,1.01-0.17c0.27-0.07,0.54-0.14,1.09-0.18
			c0.55-0.03,0.83,0,1.11,0.04c0.27,0.04,0.52,0.07,1.03,0.04l0.03,0.41c-0.55,0.03-0.83,0-1.11-0.04
			c-0.27-0.04-0.52-0.07-1.03-0.04c-0.51,0.03-0.75,0.1-1.01,0.17c-0.27,0.07-0.54,0.14-1.09,0.18c-0.55,0.03-0.83,0-1.1-0.04
			c-0.27-0.04-0.52-0.07-1.03-0.04c-0.51,0.03-0.75,0.1-1.01,0.17c-0.27,0.07-0.54,0.14-1.09,0.18
			C78.11,63.89,77.98,63.89,77.86,63.89z"/>
	</g>
	<g>
		<path class="st4" d="M67.39,64.54c-0.24,0-0.4-0.02-0.55-0.04c-0.2-0.03-0.4-0.05-0.79-0.03l-0.03-0.41
			c0.43-0.03,0.66,0,0.87,0.03c0.2,0.03,0.4,0.05,0.79,0.03c0.39-0.03,0.58-0.08,0.78-0.13c0.21-0.06,0.43-0.11,0.86-0.14
			c0.43-0.03,0.66,0,0.87,0.03c0.2,0.03,0.4,0.05,0.79,0.03c0.39-0.03,0.58-0.08,0.78-0.13c0.21-0.06,0.43-0.11,0.86-0.14
			c0.43-0.03,0.66,0,0.87,0.03c0.21,0.03,0.4,0.05,0.79,0.03l0.03,0.41c-0.43,0.03-0.66,0-0.87-0.03c-0.2-0.03-0.4-0.05-0.79-0.03
			c-0.39,0.03-0.58,0.08-0.78,0.13c-0.21,0.06-0.43,0.11-0.86,0.14c-0.43,0.03-0.66,0-0.87-0.03c-0.2-0.03-0.4-0.05-0.79-0.03
			c-0.39,0.03-0.58,0.08-0.78,0.13c-0.21,0.06-0.43,0.11-0.86,0.14C67.59,64.53,67.48,64.54,67.39,64.54z"/>
	</g>
	<g>
		<path class="st4" d="M75.68,67.39c-0.36,0-0.6-0.03-0.83-0.06c-0.32-0.04-0.62-0.08-1.23-0.04l-0.03-0.41
			c0.65-0.04,0.98,0,1.31,0.05c0.32,0.04,0.62,0.08,1.23,0.04c0.61-0.04,0.9-0.12,1.21-0.2c0.31-0.08,0.64-0.17,1.29-0.21
			c0.65-0.04,0.98,0,1.31,0.05c0.32,0.04,0.62,0.08,1.23,0.04c0.61-0.04,0.9-0.12,1.21-0.2c0.32-0.08,0.64-0.17,1.29-0.21
			c0.65-0.04,0.98,0,1.31,0.05c0.32,0.04,0.62,0.08,1.23,0.04l0.03,0.41c-0.65,0.04-0.98,0-1.31-0.05
			c-0.32-0.04-0.62-0.08-1.23-0.04c-0.61,0.04-0.9,0.12-1.21,0.2c-0.32,0.08-0.64,0.17-1.29,0.21c-0.65,0.04-0.98,0-1.31-0.05
			c-0.32-0.04-0.62-0.08-1.23-0.04c-0.61,0.04-0.9,0.12-1.21,0.2c-0.31,0.08-0.64,0.17-1.29,0.21
			C75.98,67.39,75.82,67.39,75.68,67.39z"/>
	</g>
	<g>
		<path class="st4" d="M67.34,67.85c-0.11,0-0.22-0.01-0.33-0.02c-0.13-0.01-0.26-0.02-0.37-0.01l-0.03-0.41
			c0.15-0.01,0.29,0,0.43,0.02c0.13,0.01,0.26,0.02,0.37,0.01c0.12-0.01,0.24-0.03,0.37-0.06c0.14-0.03,0.28-0.06,0.43-0.07
			c0.15-0.01,0.29,0,0.43,0.02c0.13,0.01,0.25,0.02,0.37,0.01c0.12-0.01,0.24-0.03,0.37-0.06c0.14-0.03,0.28-0.06,0.43-0.07
			c0.15-0.01,0.29,0,0.43,0.02c0.13,0.01,0.26,0.02,0.37,0.01l0.03,0.41c-0.15,0.01-0.29,0-0.43-0.02
			c-0.13-0.01-0.25-0.02-0.37-0.01c-0.12,0.01-0.24,0.03-0.37,0.06c-0.14,0.03-0.28,0.06-0.43,0.07c-0.15,0.01-0.29,0-0.43-0.02
			c-0.13-0.01-0.26-0.02-0.37-0.01c-0.12,0.01-0.24,0.03-0.37,0.06c-0.14,0.03-0.28,0.06-0.43,0.07
			C67.41,67.85,67.37,67.85,67.34,67.85z"/>
	</g>
</g>
</svg>
