<svg width="260" height="335" viewBox="0 0 260 335" fill="none" xmlns="http://www.w3.org/2000/svg">
<g clip-path="url(#clip0_36_89)">
<path d="M-77.9813 297.605L12.6722 227.842C12.6722 227.842 78.8929 184.28 94.6471 182.47C110.398 180.685 123.997 179.68 135.852 180.031C147.732 180.385 176.461 182.703 185.187 179.042C193.911 175.407 199.098 170.83 204.805 166.315C210.513 161.799 211.649 160.9 211.69 156.227C211.732 151.554 212.003 149.02 214.198 143.567C216.393 138.113 213.355 133.106 205.569 133.23C197.783 133.353 188.143 140.529 188.143 140.529C188.143 140.529 189.226 117.869 190.106 114.852C190.986 111.836 203.13 92.0248 205.642 88.1678C208.154 84.3108 219.673 78.9135 224.68 75.8755C229.687 72.8376 240.725 62.7311 240.725 62.7311C240.725 62.7311 251.544 58.8114 255.515 51.5028C259.486 44.1941 253.388 34.1522 250.038 36.3522C246.663 38.5492 238.935 38.1764 234.945 41.3329C230.955 44.4895 208.915 51.2507 208.915 51.2507C208.915 51.2507 201.41 53.4944 197.315 53.0171C193.221 52.5397 179.306 51.9486 179.306 51.9486C179.306 51.9486 171.217 45.8244 164.865 42.4933C158.513 39.1622 140.628 45.8796 140.628 45.8796C140.628 45.8796 131.422 44.8063 125.695 45.1699C119.944 45.5305 112.662 50.3907 112.662 50.3907C112.662 50.3907 107.432 50.8121 103.859 50.3955C100.285 49.9789 88.1073 52.1808 83.7588 58.4142C79.4103 64.6477 53.6562 98.9437 52.057 99.2854C50.4578 99.6271 37.7834 101.771 22.2599 114.976C13.1027 122.762 -27.9149 135.459 -60.0656 144.588" fill="white"/>
<path d="M-77.9813 297.605L12.6722 227.842C12.6722 227.842 78.8929 184.28 94.6471 182.47C110.398 180.685 123.997 179.68 135.852 180.031C147.732 180.385 176.461 182.703 185.187 179.042C193.911 175.407 199.098 170.83 204.805 166.315C210.513 161.799 211.649 160.9 211.69 156.227C211.732 151.554 212.003 149.02 214.198 143.567C216.393 138.113 213.355 133.106 205.569 133.23C197.783 133.353 188.143 140.529 188.143 140.529C188.143 140.529 189.226 117.869 190.106 114.852C190.986 111.836 203.13 92.0248 205.642 88.1678C208.154 84.3108 219.673 78.9135 224.68 75.8755C229.687 72.8376 240.725 62.7311 240.725 62.7311C240.725 62.7311 251.544 58.8114 255.515 51.5028C259.486 44.1941 253.388 34.1522 250.038 36.3522C246.663 38.5492 238.935 38.1764 234.945 41.3329C230.955 44.4895 208.915 51.2507 208.915 51.2507C208.915 51.2507 201.41 53.4944 197.315 53.0171C193.221 52.5397 179.306 51.9485 179.306 51.9485C179.306 51.9485 171.217 45.8244 164.865 42.4933C158.513 39.1622 140.628 45.8796 140.628 45.8796C140.628 45.8796 131.422 44.8063 125.695 45.1699C119.944 45.5305 112.662 50.3907 112.662 50.3907C112.662 50.3907 107.432 50.8121 103.859 50.3955C100.285 49.9789 88.1073 52.1808 83.7588 58.4142C79.4103 64.6477 53.6562 98.9437 52.057 99.2854C50.4578 99.6271 37.7834 101.771 22.2599 114.976C13.1027 122.762 -27.9149 135.459 -60.0656 144.588" stroke="#2D2E83" stroke-width="2.49816" stroke-linecap="round" stroke-linejoin="round"/>
<path d="M188.119 140.524L191.443 156.455" stroke="#2D2E83" stroke-width="2.49816" stroke-linecap="round" stroke-linejoin="round"/>
<path d="M179.285 51.9212C179.285 51.9212 175.354 54.5814 173.459 57.4541" stroke="#2D2E83" stroke-width="2.49816" stroke-linecap="round" stroke-linejoin="round"/>
<path d="M214.863 75.7621L205.645 88.1682" stroke="#2D2E83" stroke-width="2.49816" stroke-linecap="round" stroke-linejoin="round"/>
<path d="M105.62 168.204C105.62 168.204 96.9401 175.995 87.8966 178.059C78.8531 180.124 76.2973 179.826 76.2973 179.826" stroke="#2D2E83" stroke-width="2.49816" stroke-linecap="round" stroke-linejoin="round"/>
<path d="M161.471 182.489C161.471 182.489 149.114 186.23 140.831 186.295C132.549 186.361 121.761 180.953 121.761 180.953C121.761 180.953 151.549 178.717 161.474 182.464L161.471 182.489Z" fill="white" stroke="#2D2E83" stroke-width="2.49816" stroke-linecap="round" stroke-linejoin="round"/>
</g>
<defs>
<clipPath id="clip0_36_89">
<rect width="306" height="300.429" fill="white" transform="translate(-44.5742 0.291992) rotate(6.65011)"/>
</clipPath>
</defs>
</svg>
