<svg width="306" height="317" viewBox="0 0 306 317" fill="none" xmlns="http://www.w3.org/2000/svg">
<g clip-path="url(#clip0_36_78)">
<path d="M401.626 112.247L247.717 164.012C247.717 164.012 243.874 177.645 222.93 198.725C201.985 219.806 202.702 216.495 202.702 216.495C202.702 216.495 188.817 232.683 178.384 240.221C167.951 247.759 164.389 238.054 164.389 238.054C164.389 238.054 154.014 240.916 149.338 240.858C144.663 240.8 133.145 228.327 133.145 228.327C133.145 228.327 128.11 231.258 124.742 232.55C121.374 233.841 117.742 232.143 113.445 228.391C109.165 224.664 109.503 223.003 108.602 214.653C107.701 206.303 108.239 189.977 108.239 189.977L101.533 193.234L97.8165 196.851C94.1 200.467 60.8462 245.432 55.3853 254.025C49.9397 262.644 47.2404 265.259 40.2455 263.498C33.2506 261.738 33.7035 253.393 38.1948 241.79C42.6708 230.161 55.2546 210.646 62.8079 195.375C70.3361 180.12 87.5745 161.991 87.5745 161.991C87.5745 161.991 101.523 141.817 114.264 136.646C127.006 131.474 174.992 110.389 174.992 110.389C174.992 110.389 210.844 99.1614 212.183 98.518C213.522 97.8746 339.208 41.2241 339.208 41.2241" fill="white"/>
<path d="M401.626 112.247L247.717 164.013C247.717 164.013 243.874 177.645 222.93 198.725C201.985 219.806 202.702 216.495 202.702 216.495C202.702 216.495 188.817 232.683 178.384 240.221C167.951 247.759 164.389 238.054 164.389 238.054C164.389 238.054 154.014 240.916 149.338 240.858C144.663 240.8 133.145 228.327 133.145 228.327C133.145 228.327 128.11 231.258 124.742 232.55C121.374 233.841 117.742 232.143 113.445 228.391C109.165 224.664 109.503 223.003 108.602 214.653C107.701 206.303 108.239 189.977 108.239 189.977L101.533 193.234L97.8165 196.851C94.1 200.467 60.8462 245.432 55.3853 254.025C49.9397 262.644 47.2404 265.259 40.2455 263.498C33.2506 261.738 33.7035 253.393 38.1948 241.79C42.6708 230.161 55.2546 210.646 62.8079 195.375C70.3361 180.12 87.5745 161.991 87.5745 161.991C87.5745 161.991 101.523 141.817 114.264 136.646C127.006 131.474 174.992 110.389 174.992 110.389C174.992 110.389 210.844 99.1614 212.183 98.518C213.522 97.8746 339.208 41.2241 339.208 41.2241" stroke="#2D2E83" stroke-width="2.95664" stroke-linecap="round" stroke-linejoin="round"/>
<path d="M236.974 119.14C235.015 114.62 231.662 113.098 231.662 113.098" stroke="#2D2E83" stroke-width="2.95664" stroke-linecap="round" stroke-linejoin="round"/>
<path d="M142.981 135.653C142.981 135.653 116.175 170.35 115.443 175.68C114.71 181.009 117.941 190.397 119.86 195.079C121.78 199.761 133.107 228.279 133.107 228.279C133.107 228.279 144.082 232.081 150.888 221.49C157.694 210.9 152.257 183.014 152.257 183.014L166.509 171.97C166.509 171.97 180.478 176.82 194.901 170.658C209.324 164.496 231.138 153.758 236.715 135.814C237.374 133.715 237.781 131.77 238.058 130.009" stroke="#2D2E83" stroke-width="2.95664" stroke-linecap="round" stroke-linejoin="round"/>
<path d="M166.528 171.993C166.528 171.993 174.967 164.423 177.413 156.11" stroke="#263238" stroke-width="2.95664" stroke-linecap="round" stroke-linejoin="round"/>
<path d="M164.37 238.029C164.37 238.029 181.955 220.243 185.756 209.268C189.558 198.294 191.028 188.324 188.419 184.271L182.504 177.523C182.456 181.535 174.602 195.119 173.578 198.098C172.555 201.077 154.648 217.881 154.648 217.881" stroke="#2D2E83" stroke-width="2.95664" stroke-linecap="round" stroke-linejoin="round"/>
<path d="M202.681 216.472C202.681 216.472 204.552 201.479 202.945 195.776C201.353 190.098 199.756 183.731 194.099 183.994L188.442 184.257" stroke="#2D2E83" stroke-width="2.95664" stroke-linecap="round" stroke-linejoin="round"/>
<path d="M122.977 161.114L110.01 157.281" stroke="#2D2E83" stroke-width="2.95664" stroke-linecap="round" stroke-linejoin="round"/>
<path d="M119.88 195.104L114.102 204.029" stroke="#2D2E83" stroke-width="2.95664" stroke-linecap="round" stroke-linejoin="round"/>
<path d="M247.714 164.015C247.714 164.015 246.855 153.008 244.255 148.29" stroke="#2D2E83" stroke-width="2.95664" stroke-linecap="round" stroke-linejoin="round"/>
<path d="M182.481 177.539L182.718 173.724" stroke="#2D2E83" stroke-width="2.95664" stroke-linecap="round" stroke-linejoin="round"/>
</g>
<defs>
<clipPath id="clip0_36_78">
<rect width="392.257" height="132.043" fill="white" transform="translate(0 204.199) rotate(-31.3708)"/>
</clipPath>
</defs>
</svg>
